<?xml version="1.0" standalone="no"?>
<!DOCTYPE svg PUBLIC "-//W3C//DTD SVG 1.1//EN" "http://www.w3.org/Graphics/SVG/1.1/DTD/svg11.dtd" >
<svg xmlns="http://www.w3.org/2000/svg">
<metadata></metadata>
<defs>
<font id="gunplay3d" horiz-adv-x="1316" >
<font-face units-per-em="2048" ascent="1501" descent="-547" />
<missing-glyph horiz-adv-x="798" />
<glyph horiz-adv-x="0" />
<glyph unicode="&#xd;" horiz-adv-x="731" />
<glyph unicode=" "  horiz-adv-x="798" />
<glyph unicode="&#x09;" horiz-adv-x="798" />
<glyph unicode="&#xa0;" horiz-adv-x="798" />
<glyph unicode="!" horiz-adv-x="706" d="M145 1597h414l178 -366l-69 -969l55 -106v-316h-377l-186 355v327h86l-27 43zM195 242h303v235h-291zM195 1550l67 -940h180l68 940h-315z" />
<glyph unicode="&#x22;" horiz-adv-x="909" d="M156 1348v282h604l178 -364v-285l-43 -305h-225l-52 98l-10 -98h-227l-182 358zM203 1356l35 -275h151l33 269v235h-219v-229zM489 1356l37 -275h150q16 106 24.5 168t12.5 101v235h-224v-229z" />
<glyph unicode="#" horiz-adv-x="1132" d="M94 809l148 465h176l88 254h452l179 -363l-19 -65l96 -193l-145 -456h-174l-86 -258h-451l-194 356l31 67zM156 852h168l-86 -254h108l92 254h135l-88 -254h111l92 254h170l41 127h-174l47 129v-6h160l43 127h-164l86 254h-111l-90 -254h-133l84 254h-108l-90 -254h-175 l-45 -127h179l-46 -131v8h-163zM475 977l45 131v-6h137l-41 -131v6h-141z" />
<glyph unicode="$" horiz-adv-x="1046" d="M117 764h209q-35 66 -68 131.5t-59.5 121.5t-42 101t-15.5 68q0 252 310 297v114h153l62 -129q45 -12 76.5 -27.5t57 -38t48 -55t47.5 -79.5l129 -250q74 -145 74 -268h-183q2 -8 18.5 -41t37 -71t38 -69.5t21.5 -40.5q76 -143 76 -233q0 -256 -326 -295v-119h-147 l-68 133q-96 25 -149.5 62t-85.5 102l-164 326q-31 61 -40 128.5t-9 131.5zM160 717q0 -276 293 -311v178q-72 35 -78 133h-215zM186 1184q0 -45 8.5 -76t36 -62.5t79.5 -73.5t143 -110v240q-47 35 -47 80q0 63 47 82v178q-266 -31 -267 -258zM494 287h65v1265h-65v-1265z M600 403q281 25 281 254q0 59 -25 105.5t-64.5 85.5t-90 74.5t-101.5 74.5v-241q63 -25 64 -101q0 -55 -64 -73v-179zM600 1255q45 -27 49 -102l225 2q0 252 -274 287v-187z" />
<glyph unicode="%" horiz-adv-x="1669" d="M135 1161v187q0 246 328 272v4q2 -2 26 -2q14 0 17 2v-2q61 -6 107 -17.5t83 -33t67 -55t56 -82.5l96 -201l254 364h289l176 -364l-245 -352q31 -14 66.5 -55.5t71.5 -96.5t68.5 -119.5t57 -126t40 -114t15.5 -82.5v-187q0 -264 -180 -276q-147 -12 -170 -12 q-106 0 -173 33.5t-112 89t-76.5 128t-68.5 152.5l-262 -375h-287l-184 355l254 364q-41 20 -79 70.5t-79 132.5q-25 49 -52.5 102.5t-50 105.5t-38 101t-15.5 90zM182 1161q0 -240 279 -252v160q-68 6 -68 57v248q0 39 68 45v158q-279 -8 -279 -229v-187zM279 242h182 l911 1310h-180zM506 909q274 12 274 250v184q0 223 -274 234v-158q59 -6 59 -45v-248q0 -47 -59 -57v-160zM885 467q0 -246 280 -252v154q-66 10 -65 61v248q0 37 65 47v156q-281 -16 -280 -228v-186zM1214 215q272 12 273 248v184q0 106 -72 168t-201 66v-156 q61 -12 62 -49v-246q0 -53 -62 -61v-154z" />
<glyph unicode="&#x26;" horiz-adv-x="1466" d="M135 586q0 160 211 358q-37 76 -58.5 119t-32.5 70.5t-14 47t-3 48.5q0 98 19 172t67.5 123t129.5 73.5t201 24.5q80 0 138.5 -10t101.5 -34t74.5 -62.5t60.5 -94.5l164 -325q35 -98 35 -174h117l178 -363q0 -158 -103 -328l72 -139l-113 -297q-61 27 -125.5 58.5 t-130.5 72.5q-141 -117 -350 -116q-94 0 -163.5 16t-121.5 47q-31 18 -68.5 63.5t-77.5 106.5t-77 133t-66.5 144.5t-47 141t-17.5 124.5zM182 586q0 -373 418 -373q193 0 318 106l-170 168q-61 -37 -127 -36q-160 0 -160 165q0 68 61 121l-137 185q-203 -182 -203 -336z M283 1288q0 -92 30.5 -172t94.5 -158q135 -168 220 -271t126 -146q117 -125 219 -207t201 -121l83 225q-141 100 -273 221t-234.5 240t-164 224.5t-61.5 174.5q0 111 123 111q115 0 115 -109q0 -106 -107 -182l121 -186q229 166 230 358q0 287 -357 287q-367 0 -366 -289z M979 715l190 -152q129 162 129 311h-260q-18 -106 -59 -159z" />
<glyph unicode="'" horiz-adv-x="616" d="M156 1348v282h313v-8l178 -356v-285q0 -49 -13 -134t-26 -171h-227l-182 358q-6 43 -13.5 88l-14.5 87t-11 78t-4 61zM203 1356l35 -275h151l33 269v235h-219v-229z" />
<glyph unicode="(" horiz-adv-x="622" d="M115 780q0 106 13 210t43 210.5t79 218t121 232.5l139 -123l178 -361q-209 -367 -209 -714q0 -328 209 -754l-162 -70l-200 391q-98 193 -154.5 377.5t-56.5 382.5zM158 811q0 -373 209 -768l82 37q-190 375 -191 741q0 354 195 697l-70 65q-225 -379 -225 -772z" />
<glyph unicode=")" horiz-adv-x="622" d="M111 96q209 358 208 715q0 344 -208 754l168 73q236 -469 284 -600q59 -160 92 -310t33 -298q0 -383 -258 -815l-133 121zM168 104l72 -61q223 371 223 772q0 373 -205 768l-84 -41q188 -389 188 -735q0 -360 -194 -703z" />
<glyph unicode="*" horiz-adv-x="911" d="M104 1272l115 4l-72 139l156 144l119 -166l41 196l203 -76l59 -133l47 15l215 -572l-129 -10l74 -149l-156 -132l-108 170l-50 -200l-196 67l-277 486zM158 1229l22 -115l236 76l-115 -234l105 -36l61 249l139 -213l84 72l-180 180l246 17l-21 112l-235 -75l104 227 l-106 39l-49 -244l-150 207l-84 -76l191 -174z" />
<glyph unicode="+" horiz-adv-x="1040" d="M104 659v271h256v262h322l129 -262h123l180 -365v-266h-252v-274h-315l-139 274h-119zM152 705h256v-277h229v277h254v180h-254v262h-229v-262h-256v-180z" />
<glyph unicode="," horiz-adv-x="649" d="M119 0l69 141l-30 54v317h362l176 -367v-272l-161 -231h-232zM193 47h139l143 203v215h-272v-223h88z" />
<glyph unicode="-" horiz-adv-x="942" d="M158 522v228h626l179 -365v-221h-621zM203 569h536v136h-536v-136z" />
<glyph unicode="." horiz-adv-x="696" d="M158 195v297h381l178 -365v-287h-375zM203 242h289v207h-289v-207z" />
<glyph unicode="/" horiz-adv-x="1153" d="M57 29l863 1597h176l178 -364l-860 -1592h-172zM133 74h72l817 1505h-76z" />
<glyph unicode="0" horiz-adv-x="1323" d="M152 612v602q0 379 485 410q37 0 39 2v-2q92 -4 162.5 -19.5t127 -46t99.5 -76.5t78 -110q37 -70 73.5 -139.5t66.5 -137t48.5 -131t18.5 -118.5v-598q0 -410 -498 -436q-104 4 -180 19t-132.5 46t-99.5 79t-82 116q-33 68 -69.5 137.5t-67.5 139t-50 136t-19 127.5z M195 612q0 -383 436 -397v211q-129 8 -129 139v660q0 129 129 139v215q-436 -12 -436 -365v-602zM682 215q444 12 444 393v598q0 373 -444 373v-215q133 -10 133 -139v-660q0 -133 -133 -139v-211zM727 492q45 20 45 73v375q-45 0 -45 -78v-370z" />
<glyph unicode="1" horiz-adv-x="845" d="M94 1167v252q156 0 225.5 41t88.5 137h280l178 -366v-1391h-387l-182 355v612zM141 1212h201v-970h299v1308h-197q-35 -176 -303 -176v-162z" />
<glyph unicode="2" horiz-adv-x="1277" d="M141 195v268q39 104 87 183t102 134l-164 320q0 522 504 522q88 0 155.5 -12.5t118.5 -39t90 -70.5t74 -107l131 -248q37 -72 52.5 -138.5t17.5 -127.5q0 -262 -189 -414l164 -324v-301h-960zM186 242h875v219h-875v-219zM203 510h344q10 66 54 122t116 105 q117 78 176 120t65 48q125 125 125 336q0 336 -413 336q-459 0 -459 -432h293q2 68 11 110.5t28.5 68.5t50.5 36t74 10q135 0 135 -178q0 -59 -36 -111.5t-92.5 -99.5t-124 -90t-128.5 -84q-154 -123 -219 -297z" />
<glyph unicode="3" horiz-adv-x="1236" d="M133 690h332l8 -6l-41 82h-108l-183 358v50q0 412 447 446h35q76 -10 134 -22.5t103 -36.5q37 -20 79 -68.5t84 -112t80 -138.5t66.5 -148.5t46 -141t17.5 -118.5q0 -143 -78 -240q61 -80 87 -165t26 -179q0 -410 -457 -436h-37q-154 16 -272.5 96t-200.5 201.5 t-125 272.5t-43 306zM178 645q4 -410 410 -428v215q-119 12 -123 213h-287zM188 1169h281q0 55 5 90t17.5 55.5t33 29t53.5 12.5v219q-199 -10 -294.5 -108.5t-95.5 -297.5zM473 813q92 0 150.5 -10t91.5 -35t45 -67t12 -103q0 -147 -135 -166v-215q410 12 410 404 q0 221 -168 303q131 94 131 272q0 367 -375 379v-219q106 -14 106 -148q0 -53 -10 -87t-39.5 -55.5t-82 -29.5t-136.5 -8v-215z" />
<glyph unicode="4" horiz-adv-x="1288" d="M104 453v252l539 892h338l178 -366v-483l184 -367v-287h-184v-254h-368l-127 254h-377zM147 498h457v202h-209l209 355v401l-457 -764v-194zM653 242h285v256h182v202h-182v850h-281l-4 -8v-1300z" />
<glyph unicode="5" horiz-adv-x="1228" d="M145 715h45l-38 73l36 809h850l181 -366v-303h-142q33 -45 65 -101.5t57.5 -116t40.5 -122t15 -119.5v-264q0 -348 -430 -391l-47 -2q-152 0 -269.5 70.5t-198.5 192.5t-123 286.5t-42 353.5zM190 668q0 -453 414 -453v207q-51 10 -78.5 27.5t-41 47t-17.5 71.5t-6 100 h-271zM199 834h252q25 94 153 108v201q-45 -10 -83 -27.5t-60 -50.5l8 268h524v217h-764zM653 217q381 27 381 348v260q0 317 -381 322v-205q106 -12 107 -106v-248q0 -143 -107 -162v-209z" />
<glyph unicode="6" horiz-adv-x="1296" d="M152 596v643q0 354 505 385q160 -10 254.5 -52t156.5 -114t108.5 -171t109.5 -222q23 -41 31 -120t8 -189h-119q43 -84 66.5 -129t36 -75t14.5 -56.5t2 -73.5v-195q0 -385 -479 -415h-39q-92 6 -160.5 20t-121 42t-92.5 73t-77 112q-33 68 -68.5 136.5t-66.5 136t-50 134 t-19 130.5zM195 596q0 -375 426 -381v215q-129 12 -129 129v221q37 80 180 80q131 0 131 -94v-205q0 -127 -133 -131v-215q432 12 432 377v194q0 279 -338 279q-166 0 -272 -86v262q0 115 141 119v219q-438 -8 -438 -340v-643zM680 1360q37 -4 61.5 -11.5t39 -28t20.5 -58 t6 -101.5h295v76q0 332 -422 342v-219z" />
<glyph unicode="7" horiz-adv-x="1132" d="M131 1286v311h883l176 -366v-297l-363 -1094h-385l-184 355l242 733h-187zM176 1333h793v217h-793v-217zM319 242h297l338 1048h-286z" />
<glyph unicode="8" horiz-adv-x="1245" d="M143 621q0 190 127 299q-35 61 -62.5 123.5t-27.5 152.5q1 389 441 424q92 -6 156.5 -22.5t111.5 -46t82 -72.5t65 -105q37 -72 74 -141.5t66.5 -137t48 -133t18.5 -128.5q0 -143 -78 -240q115 -207 115 -344q0 -410 -479 -436q-92 6 -161 21t-121 45t-93 77t-80 115 q-33 66 -68.5 135t-65.5 139t-49.5 138.5t-19.5 136.5zM188 621q0 -391 408 -404v215q-133 18 -133 166q0 178 135 209v229q-106 33 -106 172q0 133 106 148v219q-373 -12 -373 -379q0 -178 131 -272q-168 -82 -168 -303zM645 1575l2 -219q104 -16 105 -148 q0 -137 -105 -170v-231q133 -35 133 -209q0 -147 -133 -166v-215q408 12 408 404q0 219 -164 303q131 94 131 272q0 367 -377 379z" />
<glyph unicode="9" horiz-adv-x="1296" d="M147 678h119q-41 82 -80 162t-39 166v198q0 418 502 418q111 -6 186.5 -23.5t130 -49t92.5 -79t75 -112.5q29 -61 61.5 -125t61 -128.5t48 -132t19.5 -136.5v-643q0 -352 -508 -381q-35 0 -93 3t-125 26.5t-133.5 72.5t-117.5 141l-141 289q-23 43 -34 67.5t-16 54.5 t-6.5 77t-1.5 135zM193 559q0 -338 423 -344v219q-41 2 -65.5 9.5t-37.5 28t-18.5 58t-5.5 103.5h-296v-74zM193 1006q0 -276 339 -277q160 0 271 86v-264q0 -117 -144 -119v-217q440 6 441 338v645q0 373 -428 379v-215q131 -8 131 -125v-225q-37 -80 -182 -80 q-131 0 -132 96v203q0 129 136 133v213q-432 -8 -432 -373v-198z" />
<glyph unicode=":" horiz-adv-x="645" d="M158 195v667h354l178 -364v-658h-348zM203 242h262v225h-262v-225zM203 588h262v227h-262v-227z" />
<glyph unicode=";" horiz-adv-x="647" d="M117 -4l71 143l-34 56v677h356l178 -366v-629l-156 -239h-229zM190 39h140l133 211v223h-262v-231h88zM201 594h262v231h-262v-231z" />
<glyph unicode="&#x3c;" horiz-adv-x="794" d="M92 737v203l572 418l174 -369v-282l-168 -121l168 -338v-281l-564 408zM135 762l481 -348v172l-358 252l358 252v178l-481 -350v-156z" />
<glyph unicode="=" horiz-adv-x="1153" d="M158 467v616h876l178 -364v-610h-870zM203 514h784v174h-784v-174zM203 862h784v176h-784v-176z" />
<glyph unicode="&#x3e;" horiz-adv-x="819" d="M158 322v288l172 119l-172 340v287l569 -416l180 -365v-200l-565 -410zM203 410l479 352v156l-479 348v-176l360 -250l-360 -252v-178z" />
<glyph unicode="?" horiz-adv-x="1159" d="M115 1233q0 360 473 389q92 -6 158.5 -22.5t115.5 -45t85 -71.5t67 -103q37 -72 72.5 -141.5t65.5 -136t47.5 -130t17.5 -124.5q0 -53 -6.5 -92t-29 -78t-65.5 -83t-117 -110q-70 -49 -69 -319v-326h-365l-182 355v337h70q-10 20 -22.5 41t-24.5 45q2 61 10 112.5 t24 96.5h-98zM158 1237h258q-4 123 147 133v205q-406 -4 -405 -338zM428 242h279v245h-279v-245zM453 618h235l2 99q0 39 22.5 74.5t56.5 71.5t73 74t72.5 80t56 90t22.5 107q0 348 -387 361v-207q111 -12 111 -174q0 -96 -70 -166q-121 -127 -125 -135q-66 -102 -69 -275z " />
<glyph unicode="@" horiz-adv-x="1206" d="M135 874q0 111 34 208.5t95.5 173t147.5 125t188 61.5h41q135 -14 229.5 -85t163.5 -200l135 -254q72 -168 72 -278q0 -123 -72 -244l72 -145q-139 -215 -289 -224q-59 -4 -94 -7t-47 -3q-92 0 -168 29.5t-129 68.5q-53 37 -118.5 132.5t-124 211t-97.5 232.5t-39 198z M180 872q0 -102 30 -185t85 -142.5t132 -94t173 -40.5v110q-322 25 -321 361q0 80 23.5 151.5t64.5 126.5t99 90t130 41v107q-94 -6 -171 -48t-131 -113t-84 -164t-30 -200zM346 866q0 -104 49 -173.5t127 -69.5q63 0 121 57q18 -59 100 -59q53 0 103.5 33.5t88.5 88 t60.5 120t22.5 130.5q0 82 -27.5 155t-77 127t-118 87t-150.5 35v-107q59 -2 109.5 -25.5t87.5 -63.5t57.5 -92t20.5 -112q0 -41 -11.5 -83t-31 -78.5t-48 -63.5t-61.5 -35q-12 8 -12 23q0 2 5 30.5t15 83.5h-108q-41 -145 -127 -145q-78 0 -78 145h-117v-8zM350 932h119 q14 66 52 112t75 46q84 0 84 -127q0 -29 -2 -31h110l48 250h-113l-10 -49q-49 61 -127 61q-37 0 -75 -21.5t-69.5 -58.5t-56.5 -84t-35 -98zM666 410q233 12 358 211h-127q-86 -92 -231 -105v-106z" />
<glyph unicode="A" d="M76 195l356 1402h459l180 -366l352 -1391h-401l-141 271h-168l-64 -271h-387l-180 355h-6zM135 242h299l232 1024l102 -535h-172l-45 -215h260l61 -274h314l-330 1308h-389z" />
<glyph unicode="B" d="M158 195v1402h495q193 0 303.5 -58t176.5 -187q33 -66 67.5 -133.5t64 -134t49 -130t19.5 -118.5q0 -184 -88 -267q37 -72 57.5 -112.5t32 -67.5t14.5 -44t3 -42q0 -115 -24.5 -202t-83 -145t-155 -87t-237.5 -29h-510zM203 242h299v1308h-299v-1308zM559 242h113 q458 0 458 356q0 268 -198 313q178 33 178 291q0 348 -457 348h-94v-217q80 0 128 -7t73.5 -24.5t33 -48t7.5 -75.5q0 -49 -7.5 -80t-33 -47.5t-73.5 -22.5t-128 -6v-221q86 0 137.5 -8.5t80 -29t37.5 -54t9 -84.5q0 -49 -8 -81t-35.5 -50.5t-80 -25.5t-140.5 -7v-219z" />
<glyph unicode="C" horiz-adv-x="1314" d="M152 596v629q0 375 516 409q205 -12 290 -57q61 -31 110.5 -90.5t91.5 -133t79 -153.5t74 -153q37 -104 37 -357h-138l138 -276v-183q0 -399 -504 -419v-2l-23 2q-92 4 -162.5 19t-127 46t-100.5 81t-83 124q-31 59 -66.5 124.5t-64.5 132.5t-48 132.5t-19 124.5z M195 598q0 -365 426 -383v213q-119 8 -119 125v680q0 113 119 131v215q-426 -20 -426 -358v-623zM682 215q444 12 444 379v137h-311q0 -10 1 -27.5t2 -37t2 -38t1 -28.5q0 -168 -139 -174v-211zM682 1364q137 -6 137 -168q0 -8 -1 -22.5t-1 -30t-1 -28.5t-1 -21h311v123 q0 362 -444 362v-215z" />
<glyph unicode="D" horiz-adv-x="1320" d="M158 195v1402h549q88 0 154.5 -13t117.5 -42t90 -75t74 -111q37 -70 73.5 -141.5t65.5 -140t47.5 -133t18.5 -120.5v-569q0 -412 -465 -412h-541zM203 242h299v1308h-299v-1308zM549 242h153q422 0 422 374v568q0 366 -415 366h-2h-158v-223q86 0 138 -5t80 -20.5t37 -41 t9 -66.5v-612q0 -39 -9 -62.5t-38 -36t-80 -16.5t-137 -4v-221z" />
<glyph unicode="E" horiz-adv-x="1112" d="M158 195v1402h831l180 -366v-303h-131l107 -213v-305h-107l131 -263v-307h-827zM203 242h303v1308h-303v-1308zM551 242h393v225h-393v-225zM551 813h371v217h-371v-217zM551 1333h393v217h-393v-217z" />
<glyph unicode="F" horiz-adv-x="1097" d="M158 195v1402h831l180 -366v-303h-131l107 -213v-305h-416v-570h-387zM203 242h303v1308h-303v-1308zM551 813h371v217h-371v-217zM551 1333h393v217h-393v-217z" />
<glyph unicode="G" horiz-adv-x="1304" d="M152 600v625q0 379 473 397l53 2q176 -2 283.5 -57.5t168.5 -184.5q33 -70 69 -139t65.5 -136t49 -130.5t19.5 -120.5v-1016h-209l-43 64q-25 -27 -48 -44.5t-53 -27.5t-71 -14t-98 -4l-2 4q-90 0 -157.5 11t-120 38t-94.5 72t-81 112q-31 66 -66.5 134.5t-66 138 t-51 139t-20.5 137.5zM195 604q0 -385 428 -385v207q-121 12 -121 131v680q0 117 121 127v215q-428 0 -428 -354v-621zM647 819h113q55 -12 55 -82v-180q0 -127 -145 -131v-209h14q145 0 221 119l62 -94h141v774h-461v-197zM670 1368q80 -4 114.5 -43t34.5 -127v-98h289v117 q0 186 -107.5 274t-330.5 88v-211z" />
<glyph unicode="H" horiz-adv-x="1312" d="M158 195v1402h391l178 -366v-156h35v522h393l178 -366v-1391h-389l-182 355v213h-35v-568h-385zM203 242h301v1308h-301v-1308zM559 811h248v-569h303v1308h-303v-520h-248v-219z" />
<glyph unicode="I" horiz-adv-x="716" d="M158 195v1402h399l178 -366v-1391h-393zM203 242h309v1308h-309v-1308z" />
<glyph unicode="J" horiz-adv-x="880" d="M115 195v321q219 0 219 45v1036h393l178 -366v-981q0 -410 -418 -410h-188zM158 242h149q373 0 373 374v934h-301v-991q0 -86 -221 -86v-231z" />
<glyph unicode="K" horiz-adv-x="1380" d="M158 195v1402h393l119 -249l151 249h430l176 -366l-387 -555l402 -836h-416l-246 486l-51 -78v-408h-387zM203 242h303v1308h-303v-1308zM557 694l61 94l230 -546h346l-504 1050l-133 -221v-377zM729 1348l121 -250l315 452h-317z" />
<glyph unicode="L" horiz-adv-x="1058" d="M158 195v1402h391l178 -366v-725h227v-8l179 -357v-301h-791zM203 242h301v1308h-301v-1308zM561 242h348v219h-348v-219z" />
<glyph unicode="M" horiz-adv-x="1656" d="M158 195v1402h483l229 -579l144 579h485l180 -366v-1391h-370l-123 240l-78 -240h-205l-194 389v-389h-367zM203 242h282v1308h-282v-1308zM516 969l236 -727h143l240 716v592h-86l-222 -901l-223 901h-88v-581zM1169 242h285v1308h-285v-1308z" />
<glyph unicode="N" horiz-adv-x="1372" d="M158 195v1402h370l310 -682v682h374l177 -366v-1391h-365l-317 666v-666h-365zM203 242h282v1308h-282v-1308zM520 991l326 -661v448l-326 668v-455zM883 242h284v1308h-284v-1308z" />
<glyph unicode="O" horiz-adv-x="1323" d="M152 612v602q0 379 524 410q92 -4 162.5 -19.5t127 -46t99.5 -76.5t78 -110q37 -70 73.5 -139.5t66.5 -137t48.5 -131t18.5 -118.5v-598q0 -410 -498 -436q-104 4 -180 19t-132.5 46t-99.5 79t-82 116q-33 68 -69.5 137.5t-67.5 139t-50 136t-19 127.5zM195 612 q0 -383 436 -397v211q-129 8 -129 139v660q0 129 129 139v215q-436 -12 -436 -365v-602zM682 215q444 12 444 393v598q0 373 -444 373v-215q133 -10 133 -139v-660q0 -133 -133 -139v-211zM727 492q45 20 45 73v375q-45 -27 -45 -78v-370z" />
<glyph unicode="P" horiz-adv-x="1257" d="M158 195v1402h495q100 0 175 -14t131.5 -44t98.5 -77t75 -110q35 -70 70.5 -136.5t64 -131t47 -127t18.5 -121.5q0 -119 -29.5 -202t-99 -136.5t-186.5 -78t-291 -24.5v-555h-385zM203 242h299v1308h-299v-1308zM559 801h100q451 0 451 401q0 348 -457 348h-94v-217 q80 0 128 -7t73.5 -24.5t33 -48t7.5 -75.5q0 -49 -7.5 -80t-33 -47.5t-73.5 -22.5t-128 -6v-221z" />
<glyph unicode="Q" horiz-adv-x="1310" d="M135 612v602q0 375 490 410q37 0 39 2v-2q98 -4 170.5 -20.5t128 -47t96.5 -77.5t74 -111q37 -72 72.5 -141.5t65 -136t48 -128t18.5 -116.5v-598q0 -154 -61 -248l51 -100v-281h-326q-45 0 -71.5 4t-48 23.5t-45 58.5t-60.5 109q-86 8 -150.5 24.5t-115.5 47t-92 77.5 t-80 119q-33 68 -69 138.5t-65.5 139t-49 133t-19.5 119.5zM182 612q0 -385 436 -397v211q-129 8 -129 139v660q0 129 129 139v215q-436 -12 -436 -365v-602zM670 182q0 -159 149 -159h2h281v194h-303v10q315 57 315 381v598q0 371 -444 373v-215q133 -10 133 -139v-660 q0 -129 -133 -139v-244zM715 481q41 25 41 84v375q-41 -29 -41 -78v-381z" />
<glyph unicode="R" d="M158 195v1402h495q193 0 303.5 -58t176.5 -187q33 -66 67.5 -133.5t64 -134t49 -130t19.5 -118.5q0 -190 -92 -271q33 -63 50.5 -101t25.5 -68.5t9 -66.5t1 -93v-238q0 -51 55 -158h-405q-18 25 -41 65t-46.5 88t-47 100t-45.5 102h-2q-41 66 -41 200h-27v-555h-385z M203 242h299v1308h-299v-1308zM559 801h100q139 0 140 -168v-275q0 -20 5 -49.5t15 -66.5h305q-26 38 -26 187v11q0 39 1 69t3 50l4 41q0 272 -174 311q178 33 178 291q0 348 -457 348h-94v-217q80 0 128 -6t73.5 -23.5t33 -48t7.5 -77.5q0 -49 -7.5 -79t-32 -47.5 t-72.5 -23.5t-130 -6v-221z" />
<glyph unicode="S" horiz-adv-x="1337" d="M135 672h279q-37 61 -81 146t-81 168t-61.5 152.5t-24.5 100.5q0 358 500 379v2q98 -4 172.5 -13.5t136 -37t114 -81.5t105.5 -149l182 -551h-274q18 -20 46 -67t58.5 -107.5t61 -126t54.5 -126t39 -107.5t15 -68q0 -362 -528 -376q-143 4 -240.5 42.5t-165.5 114.5 q-6 6 -31.5 40t-59.5 87t-71.5 122t-69.5 144.5t-53.5 155.5t-21.5 156zM180 629q0 -397 457 -416v227q-162 18 -168 189h-289zM211 1237q0 -162 160 -281q129 -98 195.5 -144t70.5 -50q219 -176 219 -225q0 -96 -147 -97v-227q444 8 444 336q0 164 -184 297 q-236 166 -351.5 256t-115.5 129q0 117 133 121v221q-424 -16 -424 -336zM709 1350q68 -8 98.5 -46t30.5 -110h305q0 362 -434 379v-223z" />
<glyph unicode="T" horiz-adv-x="1263" d="M121 1286v311h1022l178 -366v-303h-315v-1088h-388l-186 355v733h-129zM166 1333h930v217h-930v-217zM477 242h303v1036h-303v-1036z" />
<glyph unicode="U" horiz-adv-x="1329" d="M154 612v985h397l178 -366v-750q45 25 45 84v1032h404l174 -366v-983q0 -436 -529 -436q-104 0 -177 18t-126 53q-35 23 -76 71t-81.5 110.5t-78.5 135t-67 146.5t-46 142.5t-17 123.5zM199 612q0 -381 434 -397v211q-127 10 -127 139v985h-307v-938zM688 215 q442 12 442 393v942h-311v-985q0 -133 -131 -139v-211z" />
<glyph unicode="V" horiz-adv-x="1286" d="M72 1597h395l145 -294l95 -277l116 571h396l178 -366l-375 -1391h-379l-182 355zM133 1550l361 -1308h247l-309 1308h-299zM684 719l119 -477l358 1308h-301z" />
<glyph unicode="W" horiz-adv-x="1785" d="M76 1597h389l178 -364l80 364h328l186 -399l76 399h385l176 -366l-330 -1391h-319l-185 355l-26 135l-109 -490h-305l-182 355zM135 1550l320 -1308h217l-246 1308h-291zM610 891l105 -537l172 795l190 -907h234l-297 1308h-252zM1225 897l121 -524l292 1177h-288z" />
<glyph unicode="X" horiz-adv-x="1456" d="M111 195l387 696l-381 706h428l190 -335l156 335h426l176 -366l-371 -647l402 -744h-424l-213 367l-170 -367h-418zM190 242h326l160 364l-148 252zM195 1550l725 -1308h348l-752 1308h-321zM768 1225l141 -250l330 575h-319z" />
<glyph unicode="Y" horiz-adv-x="1359" d="M88 1597h414l190 -391l164 391h416l174 -366l-387 -811v-580h-389l-183 355v528zM158 1550l352 -755l133 325l-170 430h-315zM532 242h304v553l362 755h-313l-353 -845v-463z" />
<glyph unicode="Z" horiz-adv-x="1236" d="M154 195v280l249 406l-204 393v323h915l178 -366v-268l-274 -447h96l178 -362v-314h-956zM199 242h872v231h-872v-231zM231 516h334l465 760h-330zM246 1317h825v233h-825v-233z" />
<glyph unicode="[" horiz-adv-x="620" d="M158 33v1593h368l179 -364v-181h-173v-886l173 -349v-172h-363zM203 76h276v90h-172v1321h172v92h-276v-1503z" />
<glyph unicode="\" horiz-adv-x="1165" d="M57 1626h189l1050 -1956h-184zM133 1579l811 -1505h86l-813 1505h-84z" />
<glyph unicode="]" horiz-adv-x="622" d="M94 33v184h172v891l-168 338h-4v180h369l178 -364v-1588h-365zM141 76h277v1503h-277v-86h172v-1319h-172v-98z" />
<glyph unicode="^" horiz-adv-x="1136" d="M72 983l405 569h182l406 -569l176 -358h-258l-233 358l-236 -358h-256zM158 1030h151l260 393l256 -393h152l-342 477h-133z" />
<glyph unicode="_" horiz-adv-x="1314" d="M72 88h1181l179 -362v-242h-1178l-182 360v244zM117 45v-156h1091v156h-1091z" />
<glyph unicode="`" horiz-adv-x="774" d="M-4 1866h473l231 -291h-6l180 -358h-262l-430 286l-178 357zM143 1823l301 -201h164l-159 201h-306z" />
<glyph unicode="a" horiz-adv-x="1220" d="M141 510q0 127 101 215l-54 102v47q0 330 447 330q82 0 143.5 -10t106.5 -33.5t77.5 -60.5t61.5 -90q37 -72 71.5 -139.5t62.5 -131t44.5 -120t16.5 -103.5q0 -18 -1 -46t-1 -62v-136q0 -295 69 -432h-368q-8 10 -16.5 22.5t-16.5 26.5q-88 -63 -205 -63q-129 0 -207 40 t-119 120l-161 321q-51 100 -52 203zM188 502q0 -272 314 -273q98 0 157 41v168q-59 -16 -110 -16q-84 0 -84 110q0 86 194 136v172q-471 -61 -471 -338zM231 872h273q2 92 121 93q94 0 94 -91v-505q0 -76 37 -127h274q-31 51 -37 317q4 0 4 328q0 272 -362 272 q-403 0 -404 -287z" />
<glyph unicode="b" horiz-adv-x="1140" d="M158 195v1402h362l195 -395q53 0 93 -9t71.5 -29.5t59.5 -55.5t54 -86q39 -74 76 -145.5t66.5 -140t48 -135t18.5 -128.5v-303q0 -344 -291 -344q-109 0 -211 53v-39h-358zM203 242h272v1308h-272v-1308zM522 285q92 -55 207 -56q248 0 248 308v294q0 326 -262 326 q-123 0 -193 -51v-160q25 25 64 25q111 0 110 -123v-350q0 -84 -108 -84q-35 0 -66 24v-153z" />
<glyph unicode="c" horiz-adv-x="1159" d="M147 549v301q0 354 435 354q86 -6 153.5 -21.5t120.5 -47t95 -80.5t79 -123q25 -51 53.5 -108.5t54 -115t42 -111.5t16.5 -97v-320q0 -334 -436 -366q-86 4 -151.5 19t-117 46t-89 77t-70.5 114q-29 59 -61.5 121.5t-60.5 124t-45.5 121t-17.5 112.5zM193 549 q0 -317 360 -330v197q-84 16 -84 116v326q0 92 84 105v196q-360 -10 -360 -309v-301zM608 219q367 18 367 328v71h-279q0 -61 -3 -99t-12 -59.5t-26.5 -30.5t-46.5 -13v-197zM608 963q31 -4 48.5 -11.5t26.5 -28t11 -58.5t2 -103h279v84q0 303 -367 313v-196z" />
<glyph unicode="d" horiz-adv-x="1140" d="M117 532v302q0 368 311 368h2q98 0 188 -47v442h363l178 -366v-1391h-356l-19 31q-88 -45 -196 -45q-182 0 -246 137l-166 332q-31 59 -45 115.5t-14 121.5zM160 537q0 -307 248 -308q119 0 210 56v153q-30 -24 -64 -24h-3q-111 0 -111 84v350q0 123 113 123q35 0 65 -25 v160q-70 51 -192 51q-266 0 -266 -326v-294zM666 242h272v1308h-272v-1308z" />
<glyph unicode="e" horiz-adv-x="1161" d="M147 549v301q0 326 424 354q98 -8 169 -24.5t124.5 -47t92 -78.5t73.5 -122q25 -55 54.5 -109.5t54 -110t41 -112.5t16.5 -115v-305q-2 -86 -37 -153.5t-94 -115.5t-141 -73.5t-176 -25.5q-145 0 -245 60t-173 210l-125 254q-29 59 -43.5 109.5t-14.5 103.5zM193 549 q0 -317 366 -330v197q-90 10 -90 116v125h90v131h-90v70q0 94 90 107v194q-367 -10 -366 -309v-301zM604 219q371 14 371 340h-279q0 -129 -92 -143v-197zM604 657h371v189q0 305 -371 313v-196q92 -12 92 -105v-70h-92v-131z" />
<glyph unicode="f" horiz-adv-x="911" d="M109 883v299h143q0 379 344 379h188l181 -367v-672h-174v-682h-353l-186 355v409zM154 928h98v207h-98v-207zM299 242h270v954q0 39 5.5 63.5t21.5 39t50 20.5t91 6v191h-125q-313 0 -313 -320v-954zM616 928h125v207h-125v-207z" />
<glyph unicode="g" horiz-adv-x="1144" d="M135 561v285q0 346 293 346q109 0 221 -57v47h342l180 -367v-817q0 -459 -452 -459q-88 0 -180 27l-183 358v76l-143 270q-41 78 -58.5 152t-19.5 139zM182 565q0 -329 289 -329h2q106 0 164 75v162q-27 -51 -78 -51q-96 0 -96 127v332q0 84 94 84q47 0 80 -27v156 q-47 29 -99.5 41t-109.5 12q-246 0 -246 -307v-275zM403 -39q35 -8 68 -12t68 -4q408 0 407 413v777h-252v-836q0 -172 -192 -172q-25 0 -50.5 2t-48.5 10v-178z" />
<glyph unicode="h" horiz-adv-x="1142" d="M158 195v1402h362l193 -395q51 0 92 -9t73.5 -29.5t59.5 -53.5t53 -82l127 -237q41 -80 54.5 -145.5t29.5 -119.5v-686h-366l-136 271v-271h-358zM203 242h272v1308h-272v-1308zM522 946q25 25 64 25q111 0 110 -123v-606h283l-2 606q0 309 -262 309q-123 0 -193 -51 v-160z" />
<glyph unicode="i" horiz-adv-x="677" d="M158 195v1321h362l176 -367v-1309h-354zM203 242h270v893h-270v-893zM203 1257h272v213h-272v-213z" />
<glyph unicode="j" horiz-adv-x="659" d="M-47 -76v281q68 -18 117 -19q78 0 77 62v1268h359l178 -363v-1272q0 -342 -354 -342q-102 0 -195 27zM-2 -39q41 -8 78 -12t71 -4q315 0 316 297v893h-270v-889q0 -106 -125 -107q-37 0 -70 6v-184zM193 1262h270v208h-270v-208z" />
<glyph unicode="k" horiz-adv-x="1183" d="M158 195v1402h362l209 -415h365l174 -367l-279 -387l303 -588h-374l-175 324l-43 -78v-246h-358zM203 242h272v1308h-272v-1308zM510 516l55 96l197 -370h278l-419 768l-111 -189v-305zM647 1049l127 -236l232 322h-310z" />
<glyph unicode="l" horiz-adv-x="679" d="M158 195v1402h362l180 -366v-1391h-358zM203 242h272v1308h-272v-1308z" />
<glyph unicode="m" horiz-adv-x="1619" d="M158 195v987h362l6 -23q39 20 77 31.5t77 11.5q156 0 235 -112q39 39 101.5 75.5t140.5 36.5q41 0 91 -11t79 -30q25 -16 57.5 -61t67.5 -105.5t69.5 -130t62.5 -134t44.5 -117t16.5 -76.5v-697h-367l-111 217v-217h-366l-101 199v-199h-358zM203 242h272v893h-272v-893z M522 946q25 25 64 25q78 0 78 -123v-606h278v592q0 41 25 59v188q-20 -16 -34.5 -33.5t-25.5 -33.5q-57 143 -229 143q-86 0 -156 -51v-160zM1006 946q20 25 57 25q74 0 74 -123v-606h282l-2 606q0 309 -262 309q-86 0 -149 -51v-160z" />
<glyph unicode="n" horiz-adv-x="1179" d="M158 195v987h362l6 -23q43 20 90.5 31.5t100.5 11.5q104 0 164.5 -41t109.5 -133l127 -237q39 -72 59.5 -135.5t24.5 -118.5v-697h-366l-136 271v-271h-358zM203 242h272v893h-272v-893zM522 946q25 25 64 25q111 0 110 -123v-606h283l-2 606q0 309 -262 309 q-123 0 -193 -51v-160z" />
<glyph unicode="o" horiz-adv-x="1167" d="M147 549v301q0 166 100.5 260t311.5 94h57q262 0 381 -223l127 -240q39 -72 54.5 -136t17.5 -120v-188q0 -133 -20.5 -220t-67.5 -141.5t-125 -81t-192 -36.5h-52q-82 6 -143 21.5t-108.5 44t-85 73.5t-70.5 111l-133 264q-29 57 -40.5 111.5t-11.5 105.5zM193 549 q0 -324 376 -330v195q-100 6 -100 118v326q0 49 24.5 77t75.5 30v194q-377 -2 -376 -309v-301zM604 219q371 6 371 328v299q0 307 -371 313v-196q92 -12 92 -105v-326q0 -102 -92 -116v-197z" />
<glyph unicode="p" horiz-adv-x="1144" d="M158 -98v1280h362l12 -35q88 45 197 45q49 0 88 -8t70 -28.5t57.5 -53.5t52.5 -84l136 -258q39 -72 54 -142.5t15 -136.5v-301q0 -362 -311 -362q-100 0 -191 47v-322h-358zM203 -51h272v1186h-272v-1186zM522 272q78 -53 193 -53q262 0 262 328v293q0 307 -248 307 q-117 0 -207 -53v-156q39 27 82 27q92 0 92 -84v-353q0 -122 -108 -122h-2q-37 0 -64 24v-158z" />
<glyph unicode="q" horiz-adv-x="1144" d="M121 545v301q0 346 293 346q53 0 104 -13.5t105 -35.5v39h364l178 -367v-1272h-356l-139 277q-16 -2 -29.5 -2h-30.5q-94 0 -160.5 34.5t-101.5 104.5l-162 328q-33 66 -49 127t-16 133zM168 547q0 -328 262 -328q115 0 193 53v158q-34 -24 -62 -24h-2q-111 0 -110 122 v353q0 84 92 84q49 0 82 -27v156q-47 29 -99.5 41t-109.5 12q-246 0 -246 -307v-293zM670 -51h272v1186h-272v-1186z" />
<glyph unicode="r" horiz-adv-x="897" d="M156 195v987h364l19 -47q41 29 101 43t148 14l179 -367v-327q-47 16 -80 23t-51 7q-53 0 -140 -106v-582h-354zM203 242h272v893h-272v-893zM516 866q49 66 137 66q20 0 44 -3t46 -11v227h-16q-72 0 -123 -21.5t-88 -70.5v-187z" />
<glyph unicode="s" horiz-adv-x="1202" d="M133 610h150l-72 133q-23 41 -32 77t-9 67q0 147 102.5 232t313.5 85h49q158 0 261 -68.5t169 -215.5l125 -285q39 -78 43 -197h-119l103 -200q25 -49 24 -111q0 -313 -432 -313h-47q-172 2 -270.5 69.5t-161.5 200.5l-135 276q-35 68 -47.5 127.5t-14.5 122.5zM178 565 q4 -336 406 -348v199q-139 16 -140 149h-266zM215 887q0 -66 35 -114t106 -89q33 -20 256 -98q139 -49 140 -107q0 -65 -123 -65h-4v-197q393 8 393 270q0 51 -14.5 88t-57.5 71t-120.5 69t-202.5 84q-70 27 -104 46t-34 52q0 59 107 66v196q-377 -6 -377 -272zM631 963 q119 -12 119 -119h260q-6 305 -379 315v-196z" />
<glyph unicode="t" horiz-adv-x="940" d="M111 883v299h141v270h360l334 -633v-295h-155v-57l20 2l178 -365l2 -270q-80 -10 -121 -16t-47 -6q-143 0 -226 43t-128 131l-162 311q-55 125 -55 313zM158 928h106v209h-106v-209zM299 520q0 -305 336 -305q25 0 58.5 3t74.5 13v187q-27 -8 -92 -8q-111 0 -111 127v870 h-266v-887zM606 928h117v209h-117v-209z" />
<glyph unicode="u" horiz-adv-x="1177" d="M154 551v631h370l133 -273v273h365l174 -367v-975h-356l-13 19q-104 -41 -184 -41q-188 0 -260 139l-168 334q-27 51 -44 109.5t-17 150.5zM201 528q0 -309 262 -309q115 0 192 53v158q-34 -24 -61 -24h-2q-113 0 -113 122v607h-278v-607zM702 242h273v893h-273v-893z " />
<glyph unicode="v" horiz-adv-x="1177" d="M100 1182h349l161 -334l97 334h368l176 -367l-309 -975h-311l-182 355zM164 1135l315 -893h244l-307 893h-252zM616 705l132 -379l264 809h-271z" />
<glyph unicode="w" horiz-adv-x="1646" d="M117 1182h358l137 -287l80 287h266l152 -310l68 310h348l178 -367l-277 -975h-297l-159 314l-84 -314h-279l-186 355zM178 1135l279 -893h196l-215 893h-260zM596 672l92 -387l137 549l154 -592h207l-258 893h-201zM1108 664l111 -379l247 850h-252z" />
<glyph unicode="x" horiz-adv-x="1253" d="M106 195l295 481l-280 506h389l123 -193l108 193h400l176 -367l-287 -440l307 -535h-387l-147 219l-137 -219h-371zM188 242h273l135 221l-141 213zM205 1135l586 -893h274l-580 893h-280zM659 944l138 -209l258 400h-287z" />
<glyph unicode="y" horiz-adv-x="1185" d="M119 1182h354l170 -348l80 348h373l178 -363l-354 -1069q-92 -207 -336 -207q-39 0 -77 1t-75 3l-182 359v293h117q70 8 73 73zM182 1137l305 -861q-2 -35 -10 -57t-28.5 -37.5t-57.5 -21.5t-96 -6v-203q37 -2 64.5 -2h43.5q238 0 316 231l-279 957h-258zM645 641 l105 -391l284 887h-272z" />
<glyph unicode="z" horiz-adv-x="1083" d="M152 195v237l165 211l-129 250v289h766l179 -367v-231l-140 -181l140 -280v-283h-797zM199 242h710v200h-710v-200zM236 938h673v197h-673v-197zM240 475h288l340 424h-290z" />
<glyph unicode="{" horiz-adv-x="886" d="M104 584v290q168 27 168 164q0 8 -1 33t-2 52.5t-2 54t-1 39.5q0 125 18.5 205.5t72 127.5t148.5 64.5t249 17.5l178 -366v-240q-123 -2 -173 -38t-50 -93q0 -53 3 -95t3 -77q0 -252 -107 -334q14 -29 30.5 -58.5t31 -65.5t26 -82t13.5 -107l45 -4l178 -363v-235 q-111 0 -185.5 7t-115.5 19q-53 16 -95 64.5t-77 112t-66 134t-61 132.5q-31 59 -45.5 133t-14.5 178zM147 623q176 -25 177 -256q0 -14 -1 -41t-2.5 -56.5t-2.5 -55.5t-1 -38q0 -84 13.5 -140t55.5 -92t119 -51.5t204 -15.5v156q-70 6 -113 18t-67.5 31.5t-33 49.5t-8.5 71 v37.5t1 49t1 50.5v41q0 287 -198 348q197 63 196 348v178q0 43 10.5 73t35 49.5t67.5 31.5t109 21v147q-29 2 -50.5 4t-42.5 2q-156 0 -226.5 -66.5t-70.5 -238.5q0 -16 1.5 -41t1.5 -50.5t1 -49t1 -37.5q0 -233 -177 -264v-213z" />
<glyph unicode="|" horiz-adv-x="499" d="M158 -186v1896h178l178 -362v-1895h-172zM203 -141h88v1808h-88v-1808z" />
<glyph unicode="}" horiz-adv-x="886" d="M133 76h41q111 12 146.5 38.5t35.5 88.5q0 12 -1 34.5t-2 48t-2 49t-1 40.5q0 248 111 334q-20 35 -39 66.5t-32 67.5t-22.5 79t-11.5 102l-39 4l-184 361v241q121 0 197 -7t124 -27.5t77.5 -56.5t60.5 -93q35 -68 70.5 -130.5t65.5 -132t48.5 -150.5t18.5 -185l168 -336 v-287q-168 -27 -168 -166v-79q0 -25 1 -45.5t1 -36.5q0 -129 -16.5 -212t-67.5 -130.5t-145.5 -65.5t-250.5 -18l-184 360v244zM178 33v-156q125 0 203 16.5t119 52.5t55 93t14 141q0 14 -1 40t-2 53.5t-2 52t-1 41.5q0 231 174 256v215q-174 27 -174 258q0 14 1 39.5 t2 53.5t2 53.5t1 41.5q0 86 -15 143.5t-58 92t-119 50t-199 15.5v-155q70 -10 114 -22.5t68.5 -33t32.5 -51.5t8 -76q0 -12 -2 -32.5t-2 -47.5v-90q0 -283 197 -346q-106 -37 -151.5 -113.5t-45.5 -228.5q0 -16 1 -40.5t1 -52.5t1 -53.5t1 -39.5q0 -43 -9 -73t-34.5 -49.5 t-68.5 -30.5t-111 -17z" />
<glyph horiz-adv-x="1236" />
<glyph unicode="&#xa1;" horiz-adv-x="706" d="M145 199l68 972l-53 101v325h381l178 -366v-320h-82l27 -49l71 -1022h-405zM195 242h315l-70 942h-180zM205 1315h289v235h-289v-235z" />
<glyph unicode="&#xa2;" horiz-adv-x="1159" d="M166 795v301q0 248 242 323v264h380l179 -372q12 -16 49 -86l127 -238q41 -78 53 -142.5t21 -117.5v-305q0 -254 -254 -336v-246h-377l-183 385q-6 4 -50 92.5t-130 260.5q-57 113 -57 217zM211 795q0 -322 360 -332v196q-84 12 -84 115v328q0 92 84 104v195 q-360 -10 -360 -305v-301zM449 242h288v207h-288v-207zM453 1432h288v204h-288v-204zM625 463q367 18 366 325v74h-274q0 -63 -3 -101t-13.5 -59.5t-28 -29.5t-47.5 -13v-196zM625 1204q31 -4 49 -11t27.5 -26.5t12.5 -58.5t3 -104h274v86q0 301 -366 311v-197z" />
<glyph unicode="&#xa3;" horiz-adv-x="1132" d="M121 190v236h155v178l-137 279h-6v299h143q0 379 345 379h188v-9l178 -358v-274h-49l51 -105v-293h-170v-96h195l178 -365v-229h-889zM166 236h803v145h-375v815q0 39 5 64.5t21.5 40t50.5 19.5t93 5v191h-127q-313 0 -313 -320v-815h-158v-145zM180 928h96v207h-96v-207 zM641 928h125v207h-125v-207z" />
<glyph unicode="&#xa5;" horiz-adv-x="1359" d="M88 1597h414l190 -391l164 391h416l174 -366l-287 -600l127 -252v-186h-8l8 -15v-186h-227v-152h-389l-76 152h-152l-180 358h-4v191h8l-4 10h-4v190h223zM158 1550l352 -755l133 325l-170 430h-315zM303 395h229v-153h304v153h227v103h-227v100h227v98h-227v99l362 755 h-313l-353 -854h-229v-98h229v-100h-229v-103z" />
<glyph unicode="&#xa8;" horiz-adv-x="968" d="M158 1575v272h653v-8l178 -356v-266h-647zM203 1622h219v180h-219v-180zM541 1622h225v180h-225v-180z" />
<glyph unicode="&#xa9;" horiz-adv-x="1689" d="M168 905q0 139 55.5 265t148.5 221.5t219 150.5t267 55q168 0 293 -67.5t219 -177t164 -246.5t127 -279q31 -74 49.5 -146.5t18.5 -139.5q0 -141 -55.5 -266t-148.5 -217.5t-219 -146.5t-268 -54q-303 0 -489 211q-14 16 -48 65t-76 117.5t-88 153.5t-83 172.5 t-61.5 172.5t-24.5 156zM215 905q0 -133 50 -250.5t138.5 -206t205 -138.5t249.5 -50t251 50t206 138.5t139 206t51 250.5q0 131 -52 249t-140 206t-206 139t-249 51q-133 0 -249.5 -51t-205 -139t-138.5 -206t-50 -249zM313 915q0 113 44 214.5t120 177t177.5 119.5 t215.5 44q113 0 214.5 -44t178 -119.5t120.5 -177t44 -214.5q0 -115 -43 -216t-118.5 -177t-177 -120t-218.5 -44t-218 44t-176 119t-119 176t-44 218zM541 801q0 -264 303 -277v166q-72 10 -72 96v273q0 74 72 86v164q-303 -8 -303 -256v-252zM887 524q303 14 303 273v61 h-227q0 -53 -3.5 -84t-10.5 -48t-22.5 -24.5t-39.5 -11.5v-166zM887 1143q25 -4 40 -10.5t23 -22.5t10.5 -48t2.5 -85h227v72q0 125 -71.5 189.5t-231.5 70.5v-166z" />
<glyph unicode="&#xaa;" horiz-adv-x="712" d="M49 1192q0 57 9.5 88t41.5 66l-26 51v24q0 168 229 168q88 0 132 -20.5t71 -75.5l69 -150q14 -29 21.5 -52t7.5 -46v-133q0 -74 7 -129t24 -92h-186l-19 27q-39 -33 -104 -33q-76 0 -111 19.5t-57 62.5l-84 157q-10 18 -18.5 35t-6.5 33zM74 1231q0 -141 162 -141 q47 0 81 22v84q-25 -6 -57 -6q-45 0 -45 55q0 45 102 70v90q-244 -35 -243 -174zM96 1419h142q0 47 61 47q47 0 47 -45v-260q0 -37 21 -63h139q-4 12 -10.5 52t-6.5 107v173q0 137 -186 137q-207 0 -207 -148z" />
<glyph unicode="&#xab;" horiz-adv-x="1257" d="M174 737v203l567 418v-12l99 -197l282 209v-12l178 -357v-282l-167 -121l167 -338v-281l-378 275v-275l-566 408zM217 762l479 -348v172l-358 252l358 252v178l-479 -350v-156zM598 762l479 -348v172l-358 252l358 252v178l-479 -350v-156z" />
<glyph unicode="&#xad;" horiz-adv-x="942" d="M158 522v228h626l179 -365v-221h-621zM203 569h536v136h-536v-136z" />
<glyph unicode="&#xae;" horiz-adv-x="1419" d="M195 1036q0 109 43 206t115.5 170t168.5 116t205 43q166 0 288 -86t214 -260q37 -72 74.5 -143.5t68.5 -142.5t50.5 -138.5t19.5 -128.5q0 -109 -42 -206t-115 -169t-169 -114t-207 -42q-166 0 -278.5 75t-210.5 241q-37 76 -77 154.5t-72.5 153.5t-54 144.5t-21.5 126.5 zM240 1036q0 -102 37.5 -191t104.5 -154.5t155 -104.5t190 -39q100 0 189.5 39t157 105.5t106.5 155.5t39 189t-39 189.5t-106.5 156t-157 105.5t-189.5 39q-102 0 -190 -39t-155 -105.5t-104.5 -155.5t-37.5 -190zM313 1042q0 88 34 165t91.5 134.5t135 91t163.5 33.5 t162 -33.5t134.5 -91t92 -135.5t33.5 -164t-33.5 -162.5t-91 -134t-134.5 -91t-163 -33.5t-163.5 32.5t-135 90t-91.5 134t-34 164.5zM549 739h139v607h-139v-607zM715 999q111 0 110 -75q0 -14 -5 -50t-5 -59q0 -43 19 -76h143q-12 18 -12 70q0 14 1 46t1 48q0 129 -80 148 q82 18 82 133q0 162 -213 162h-41v-103q72 0 91 -13t19 -59q0 -23 -3 -37t-14 -21t-33.5 -10t-59.5 -3v-101z" />
<glyph unicode="&#xb0;" horiz-adv-x="1288" d="M188 1051q0 92 36 175t97.5 144.5t144.5 97t175 35.5q141 0 244.5 -73.5t177.5 -221.5q37 -74 74 -144.5t67.5 -136t49 -126t18.5 -113.5q0 -92 -36 -174t-97.5 -142.5t-143.5 -96t-174 -35.5q-170 0 -270 86q-29 25 -68 75t-78.5 114.5t-78.5 139t-70 146t-49.5 137.5 t-18.5 113zM231 1051q0 -84 33 -158t88.5 -129t130 -88t158.5 -33t157.5 33t129 89t87.5 130t32 156t-33 155.5t-88.5 129t-129 88t-155.5 32.5q-84 0 -157.5 -31.5t-130 -87t-89.5 -129t-33 -157.5zM297 1055q0 74 27.5 138t76 111.5t111.5 75t135 27.5q70 0 134.5 -28.5 t112.5 -77t76.5 -113t28.5 -133.5q0 -72 -28.5 -135.5t-76.5 -110.5t-112.5 -75.5t-134.5 -28.5q-72 0 -135 27.5t-111.5 74.5t-76 111.5t-27.5 136.5zM528 772q61 -23 119 -22q51 0 99.5 17t88 48t67.5 73t40 91q-33 14 -60.5 19.5t-54.5 5.5q-104 0 -187 -64t-112 -168z " />
<glyph unicode="&#xb2;" horiz-adv-x="833" d="M152 1028q27 53 48 89t38 57l-74 141q2 307 274 307q35 0 80 -6t68 -19q25 -14 56.5 -55t63 -95t61.5 -115.5t52.5 -119t36.5 -102.5t14 -68q0 -125 -84 -202l72 -140v-196h-524l-180 358zM195 909h438v109h-438v-109zM205 1042h170q14 63 88 115q66 45 102.5 72.5 t54 52.5t21.5 52.5t4 74.5q0 166 -207 166q-231 0 -231 -215h149q2 113 82 113q66 0 66 -89q0 -70 -121 -147q-72 -47 -116 -96t-62 -99z" />
<glyph unicode="&#xb3;" horiz-adv-x="808" d="M154 1155h94l-90 172q0 250 225 287h61q80 -8 122 -40t79 -101q35 -66 69 -129.5t61.5 -122t45 -108.5t17.5 -89q0 -72 -35 -125q53 -102 53 -168q0 -207 -227 -237h-66q-121 29 -192 137l-140 254q-78 174 -77 270zM201 1110q0 -201 205 -213v107q-61 8 -62 106h-143z M203 1372h143q0 84 55 94v109q-199 -6 -198 -203zM346 1194q47 0 77 -5t45 -18.5t20.5 -34t5.5 -51.5q0 -70 -66 -81v-107q205 2 205 201q0 104 -84 151q68 45 67 137q0 184 -188 189v-109q51 -8 51 -73q0 -53 -25.5 -73t-107.5 -20v-106z" />
<glyph unicode="&#xb4;" horiz-adv-x="819" d="M80 1575l223 291h520l170 -363l-432 -286h-297zM170 1622h199l301 201h-344z" />
<glyph unicode="&#xb6;" horiz-adv-x="1099" d="M205 1233q0 57 15.5 110.5t42 94.5t64.5 65.5t81 24.5h510l178 -367v-280h-92v-940h-142l-90 186v-186h-151l-183 358v383l-174 344q-59 115 -59 207zM252 1233q0 -51 12 -96t32.5 -79t49.5 -54.5t62 -20.5q43 0 73 31v-670h66v961h178v-961h55v942h92v195h-464 q-33 0 -62 -19.5t-49.5 -53.5t-32.5 -79t-12 -96z" />
<glyph unicode="&#xb7;" horiz-adv-x="696" d="M158 752v295h381l178 -365v-291h-375zM203 797h289v204h-289v-204z" />
<glyph unicode="&#xb9;" horiz-adv-x="708" d="M166 1360v172q141 0 160 90h180v-10l178 -357v-739h-233l-185 358v293zM211 1405h100v-483h152v653h-101q-18 -86 -151 -86v-84z" />
<glyph unicode="&#xba;" horiz-adv-x="751" d="M82 1229v172q0 98 56.5 150.5t178.5 52.5h31q154 0 221 -125l74 -140q23 -41 32 -79.5t9 -67.5v-109q0 -152 -50 -214t-183 -62h-31q-96 0 -146.5 33.5t-87.5 111.5l-71 154q-16 35 -24.5 61.5t-8.5 61.5zM106 1229q0 -188 216 -191v111q-57 6 -58 70v188q0 59 58 61v111 q-215 -4 -216 -178v-172zM342 1038q215 2 215 189v172q0 176 -215 180v-113q53 -10 53 -59v-188q0 -59 -53 -66v-115z" />
<glyph unicode="&#xbb;" horiz-adv-x="1296" d="M158 322v288l172 119l-172 340v287l413 -301v301l570 -416l180 -365v-200l-567 -410l-111 221l-301 -221zM203 410l479 352v156l-479 348v-176l360 -250l-360 -252v-178zM616 410l480 352v156l-480 348v-176l361 -250l-361 -252v-178z" />
<glyph unicode="&#xbc;" horiz-adv-x="1544" d="M143 195l267 389l-150 290v293l-96 193h-6v170q145 4 164 92h180l178 -367v-284l453 655h184l176 -364l-209 -306l189 -381v-239l94 -184v-187h-94v-125h-228l-61 125h-191l-168 336l-319 -461h-176zM205 1405h102v-483h148v653h-97q-18 -86 -153 -86v-84zM227 242h74 l930 1337h-74zM858 369h225v100h-104l104 178v201l-225 -381v-98zM1108 242h143v127h92v100h-92v426h-143v-653z" />
<glyph unicode="&#xbd;" horiz-adv-x="1550" d="M123 195l287 413l-138 266v291l-102 195v172q147 0 162 88h182l176 -365v-241l424 612h184l179 -364l-236 -338q25 -12 55.5 -52.5t61.5 -93.5t59.5 -114.5t51 -118t36 -102.5t13.5 -68q0 -125 -82 -201l69 -141v-193h-522l-184 355v92l-312 -447h-178zM207 242h76 l929 1337h-75zM215 1405h102v-485h150v655h-98q-18 -88 -154 -88v-82zM846 242h438v108h-438v-108zM852 375h174q12 68 84 114q68 45 105.5 73t55 52.5t21.5 52t4 74.5q0 168 -209 168q-227 0 -229 -217h146q4 115 81 115q70 0 70 -90q0 -66 -125 -148q-70 -47 -114 -100 t-64 -94z" />
<glyph unicode="&#xbe;" horiz-adv-x="1531" d="M104 1157h95l-93 172q0 246 226 289h63q74 -10 119 -44t83 -94.5t77 -149.5t98 -208l350 504h183l176 -364l-203 -291l199 -396v-239l90 -184v-187h-90v-125h-228l-65 125h-187l-174 346l-331 -471h-179l-184 355l250 362q-25 10 -35 30.5t-27 49.5l-135 250 q-41 76 -57 144.5t-21 125.5zM152 1112q2 -203 202 -215v107q-57 8 -63 108h-139zM154 1374h143q0 82 53 92v109q-197 -6 -196 -201zM215 242h74l930 1337h-74zM297 1194q92 0 119.5 -22.5t27.5 -86.5q0 -70 -65 -79v-109q203 2 203 201q0 106 -82 151q63 45 63 137 q0 184 -184 189v-109q51 -8 51 -73q0 -53 -24.5 -71.5t-108.5 -18.5v-109zM858 369h227v100h-104l104 178v201l-227 -381v-98zM1110 242h141v127h95v100h-95v426h-141v-653z" />
<glyph unicode="&#xbf;" horiz-adv-x="1159" d="M119 606q0 55 6 94t28.5 77t66.5 83t118 111q59 53 74.5 99t15.5 93q0 20 -1 40t-1 42h4l-20 41h-4v336h368l178 -367v-327h-67l45 -92q-2 -61 -10.5 -113.5t-22.5 -97.5h137l187 -406q0 -356 -447 -379v-4q-94 6 -164.5 19.5t-126 42t-97.5 77t-79 125.5 q-29 61 -62.5 125t-61 128.5t-46 128t-18.5 124.5zM164 604q0 -350 387 -362v209q-111 8 -111 172q0 94 70 165q72 76 110.5 122t57 86t23 85t6.5 117h-238l-4 -98q-2 -37 -33 -82t-69.5 -86t-74.5 -73t-48 -40q-76 -94 -76 -215zM453 1329h276v246h-276v-246zM596 242 q403 6 403 342h-258q0 -129 -145 -135v-207z" />
<glyph unicode="&#xc0;" d="M76 195l327 1282l-227 389h473l217 -269l205 -366l352 -1391h-401l-141 271h-168l-64 -271h-387zM135 242h299l232 1024l102 -535h-172l-45 -215h260l61 -274h314l-330 1308h-389zM324 1823l301 -201h163l-159 201h-305z" />
<glyph unicode="&#xc1;" d="M76 195l352 1380l219 291h518l172 -363l-303 -200l389 -1463h-401l-141 271h-168l-64 -271h-387zM135 242h299l232 1024l102 -535h-172l-45 -215h260l61 -274h314l-330 1308h-389zM514 1622h199l301 201h-344z" />
<glyph unicode="&#xc2;" d="M76 195l274 1083l-155 297l356 291h233l351 -291l180 -358h-240l348 -1377h-401l-141 271h-168l-64 -271h-387zM135 242h299l232 1024l102 -535h-172l-45 -215h260l61 -274h314l-330 1308h-389zM322 1622h247l101 86l98 -86h248l-248 201h-203z" />
<glyph unicode="&#xc3;" d="M76 195l305 1198l-94 182q0 272 274 272q43 0 127 -24v-4q61 -18 84 -19l16 10q8 14 9 39h217l194 -407q0 -160 -139 -209l354 -1393h-401l-141 271h-168l-64 -271h-387zM135 242h299l232 1024l102 -535h-172l-45 -215h260l61 -274h314l-330 1308h-389zM332 1620h145 q0 47 70 47q12 0 40.5 -7t61.5 -16.5t62.5 -16.5t44.5 -7q231 0 231 182h-147q0 -47 -68 -47q-16 0 -45 7t-60.5 16.5t-60 16.5t-45.5 7q-229 0 -229 -182z" />
<glyph unicode="&#xc4;" d="M76 195l321 1261l-63 119v272h653l178 -364v-266h-90l348 -1377h-401l-141 271h-168l-64 -271h-387zM135 242h299l232 1024l102 -535h-172l-45 -215h260l61 -274h314l-330 1308h-389zM379 1622h219v180h-219v-180zM719 1622h221v180h-221v-180z" />
<glyph unicode="&#xc5;" d="M76 195l356 1402h53q-31 49 -30 111q0 88 59 145.5t145 57.5q127 0 199 -142l166 -329q10 -23 16.5 -45.5t6.5 -46.5q0 -39 -9 -56l385 -1452h-401l-141 271h-168l-64 -271h-387zM135 242h299l232 1024l102 -535h-172l-45 -215h260l61 -274h314l-330 1308h-184 q152 25 151 158q0 70 -48 113t-116 43q-66 0 -112.5 -43t-46.5 -113q0 -137 147 -158h-180zM592 1706q0 63 72 63t71 -63q0 -63 -71 -64q-72 1 -72 64z" />
<glyph unicode="&#xc6;" horiz-adv-x="1480" d="M76 195l356 1402h895l178 -366v-303h-129l107 -213v-305h-109l131 -263v-307h-692l-117 228l-47 -228h-387zM135 242h299l211 1024l27 -2v-529h-76l-45 -219h125v-274h223v1308h-432zM944 242h340v225h-340v-225zM944 813h313v217h-313v-217zM944 1333h340v217h-340v-217 z" />
<glyph unicode="&#xc7;" horiz-adv-x="1314" d="M152 596v629q0 399 530 399q86 0 156.5 -11t119.5 -36q61 -31 111.5 -91.5t93.5 -136t82 -159.5t76 -160q29 -98 29 -340h-138l138 -276v-183q0 -330 -316 -399q29 -53 29 -86q0 -47 -59 -137h-435l-180 358h-10q10 6 18.5 13.5t16.5 11.5q-27 35 -71 108.5t-87 161.5 t-73.5 177t-30.5 157zM195 598q0 -332 354 -379q72 -61 72 -102q0 -31 -105 -105h285q37 51 37 94q0 57 -76 113q104 12 174 39t112 84t60 150.5t18 238.5h-311q0 -12 1 -29.5t2 -38t2 -38t1 -29.5q0 -160 -139 -170h-61q-119 18 -119 127v680q0 113 119 131v215 q-426 -20 -426 -358v-623zM682 1364q137 -6 137 -168q0 -8 -1 -22.5t-1 -30t-1 -28.5t-1 -21h311v123q0 362 -444 362v-215z" />
<glyph unicode="&#xc8;" horiz-adv-x="1112" d="M127 1866h473l215 -269h174l180 -366v-303h-131l107 -213v-305h-107l131 -263v-307h-827l-184 355v1402h108zM203 242h303v1308h-303v-1308zM274 1823l301 -201h162l-159 201h-304zM551 242h393v225h-393v-225zM551 813h371v217h-371v-217zM551 1333h393v217h-393v-217z " />
<glyph unicode="&#xc9;" horiz-adv-x="1112" d="M158 195v1402h141l211 269h518l170 -363l-123 -84l94 -188v-303h-131l107 -213v-305h-107l131 -263v-307h-827zM203 242h303v1308h-303v-1308zM375 1622h198l301 201h-342zM551 242h393v225h-393v-225zM551 813h371v217h-371v-217zM551 1333h393v217h-393v-217z" />
<glyph unicode="&#xca;" horiz-adv-x="1112" d="M98 1575l346 291h236l350 -291l139 -283v-364h-131l107 -213v-305h-107l131 -263v-307h-827l-184 355v1261zM203 242h303v1308h-303v-1308zM215 1622h248l100 86l101 -86h245l-245 201h-201zM551 242h393v225h-393v-225zM551 813h371v217h-371v-217zM551 1333h393v217 h-393v-217z" />
<glyph unicode="&#xcb;" horiz-adv-x="1112" d="M158 195v1402h88v250h651l178 -364v-66l94 -186v-303h-131l107 -213v-305h-107l131 -263v-307h-827zM203 242h303v1308h-303v-1308zM289 1622h221v180h-221v-180zM551 242h393v225h-393v-225zM551 813h371v217h-371v-217zM551 1333h393v217h-393v-217zM629 1622h223v180 h-223v-180z" />
<glyph unicode="&#xcc;" horiz-adv-x="716" d="M-86 1866h477l227 -291l179 -358h-62v-1377h-393l-184 355v1271l-54 37zM61 1823l301 -201h164l-157 201h-308zM203 242h309v1308h-309v-1308z" />
<glyph unicode="&#xcd;" horiz-adv-x="716" d="M129 1575l225 291h518l170 -363l-333 -219l26 -53v-1391h-393l-184 355v1335zM203 242h309v1308h-309v-1308zM219 1622h199l305 201h-348z" />
<glyph unicode="&#xce;" horiz-adv-x="716" d="M-111 1575l357 291h231l350 -291l183 -358h-275v-1377h-393l-184 355v1022h-82zM14 1622h248l98 86l103 -86h246l-246 201h-203zM203 242h309v1308h-309v-1308z" />
<glyph unicode="&#xcf;" horiz-adv-x="716" d="M35 1575v272h653l178 -364v-266h-131v-1377h-393l-184 355v1142zM80 1622h219v180h-219v-180zM203 242h309v1308h-309v-1308zM418 1622h223v180h-223v-180z" />
<glyph unicode="&#xd0;" horiz-adv-x="1388" d="M121 762v225h106v610h547q90 0 156.5 -14t118 -43t90.5 -75t73 -109q37 -68 74 -138.5t65.5 -139t47 -134t18.5 -123.5v-569q0 -412 -465 -412h-542l-183 355v362zM166 807h106v-565h299v565h131v135h-131v608h-299v-608h-106v-135zM618 242h154q420 0 420 374v568 q0 367 -418 366h-156v-223q86 0 138.5 -5t80 -20.5t37 -41t9.5 -66.5v-612q0 -39 -9.5 -62.5t-38 -36t-79.5 -16.5t-138 -4v-221z" />
<glyph unicode="&#xd1;" horiz-adv-x="1372" d="M158 195v1402h141q12 250 274 250q43 0 127 -24v-4q61 -18 84 -19l17 10q8 14 8 39h190l43 -45l103 -207h67l177 -366v-1391h-365l-317 654v-654h-365zM203 242h282v1308h-282v-1308zM346 1620h143q0 47 72 47q12 0 42 -7t62.5 -16.5t62.5 -16.5t44 -7q227 0 227 182 h-147q0 -47 -68 -47q-16 0 -45.5 7t-61.5 16.5t-61.5 16.5t-44.5 7q-225 0 -225 -182zM520 991l326 -661v448l-326 668v-455zM707 1169l131 -266v336l-97 25l-18 -11q-8 -14 -8 -39h-8v-45zM883 242h284v1308h-284v-1308z" />
<glyph unicode="&#xd2;" horiz-adv-x="1323" d="M127 1866h473l203 -254q63 -12 115.5 -28.5t91.5 -43.5q33 -23 70.5 -71t75.5 -110.5t73 -133t61.5 -140t43 -132t16.5 -107.5v-598q0 -410 -498 -436h-31q-92 4 -161.5 18t-124 45t-96.5 79t-81 118q-33 68 -69.5 137.5t-67.5 139t-50 136t-19 127.5v602q0 213 149 314z M195 612q0 -383 436 -397v211q-129 8 -129 139v660q0 129 129 139v215q-436 -12 -436 -365v-602zM274 1823l301 -201h162l-159 201h-304zM682 215q444 12 444 393v598q0 373 -444 373v-215q133 -10 133 -139v-660q0 -133 -133 -139v-211zM727 492q45 20 45 73v375 q-45 -27 -45 -78v-370z" />
<glyph unicode="&#xd3;" horiz-adv-x="1323" d="M152 612v602q0 262 229 357l229 295h520l168 -363l-163 -108l16 -28t39.5 -74t51.5 -104.5t51.5 -119.5t40 -119.5t16.5 -103.5v-598q0 -410 -498 -436h-31q-92 4 -161.5 18t-124 45t-96.5 79t-81 118q-33 68 -69.5 137.5t-67.5 139t-50 136t-19 127.5zM195 612 q0 -383 436 -397v211q-129 8 -129 139v660q0 129 129 139v215q-436 -12 -436 -365v-602zM477 1622h195l305 201h-344zM682 215q444 12 444 393v598q0 373 -444 373v-215q133 -10 133 -139v-660q0 -133 -133 -139v-211zM727 492q45 20 45 73v375q-45 -27 -45 -78v-370z" />
<glyph unicode="&#xd4;" horiz-adv-x="1323" d="M152 612v602q0 160 86 256l-62 105l359 291h231l352 -291l180 -358h-77q45 -86 66.5 -131.5t23.5 -49.5q39 -78 39 -190v-598q0 -410 -498 -436h-31q-92 4 -161.5 18t-124 45t-96.5 79t-81 118q-33 68 -69.5 137.5t-67.5 139t-50 136t-19 127.5zM195 612q0 -383 436 -397 v211q-129 8 -129 139v660q0 129 129 139v215q-436 -12 -436 -365v-602zM303 1622h248l98 86l101 -86h247l-245 201h-203zM682 215q444 12 444 393v598q0 373 -444 373v-215q133 -10 133 -139v-660q0 -133 -133 -139v-211zM727 492q45 20 45 73v375q-45 -27 -45 -78v-370z " />
<glyph unicode="&#xd5;" horiz-adv-x="1323" d="M152 612v602q0 207 145 312l-27 49q0 272 271 272q43 0 129 -24v-4q63 -18 84 -19l18 10l4 39h193l45 -45l178 -362q0 -66 -25 -115q33 -61 65 -123.5t58.5 -124t43 -121t16.5 -112.5v-598q0 -410 -498 -436h-31q-88 0 -156.5 12t-123 42t-98.5 78t-83 119 q-35 70 -71.5 140.5t-67.5 141.5t-50 138.5t-19 128.5zM195 612q0 -383 436 -397v211q-129 8 -129 139v660q0 129 129 139v215q-436 -12 -436 -365v-602zM313 1620h148q0 47 67 47q12 0 42 -7t63 -16.5t62.5 -16.5t43.5 -7q229 0 230 182h-146q0 -47 -69 -47q-16 0 -46 7 t-62 16.5t-60.5 16.5t-40.5 7q-231 0 -232 -182zM682 215q444 12 444 393v598q0 373 -444 373v-215q133 -10 133 -139v-660q0 -133 -133 -139v-211zM727 492q45 20 45 73v375q-45 -27 -45 -78v-370z" />
<glyph unicode="&#xd6;" horiz-adv-x="1323" d="M152 612v602q0 242 194 340l-14 21v272h651l182 -364v-150l121 -235q63 -133 64 -252v-598q0 -410 -498 -436h-31q-92 4 -161.5 18t-124 45t-96.5 79t-81 118q-33 68 -69.5 137.5t-67.5 139t-50 136t-19 127.5zM195 612q0 -383 436 -397v211q-129 8 -129 139v660 q0 129 129 139v215q-436 -12 -436 -365v-602zM379 1622h219v180h-219v-180zM682 215q444 12 444 393v598q0 373 -444 373v-215q133 -10 133 -139v-660q0 -133 -133 -139v-211zM717 1622h223v180h-223v-180zM727 492q45 20 45 73v375q-45 -27 -45 -78v-370z" />
<glyph unicode="&#xd7;" horiz-adv-x="1169" d="M152 629l210 215l-204 383l151 153l297 -297l293 293l152 -149l178 -361l-201 -202l191 -379l-148 -150l-285 287l-305 -303l-190 229q-33 70 -68 139.5t-71 141.5zM213 629l88 -90l305 305l285 -285l88 88l-285 285l293 295l-88 88l-293 -293l-297 293l-86 -88l293 -295 z" />
<glyph unicode="&#xd8;" horiz-adv-x="1323" d="M152 612v602q0 379 485 410h39q92 -4 162.5 -19.5t127 -46t99.5 -76.5t78 -110q37 -70 73.5 -139.5t66.5 -137t48.5 -131t18.5 -118.5v-598q0 -410 -498 -436h-31q-92 4 -160.5 20t-123 47t-97.5 78t-82 115q-33 68 -69.5 137.5t-67.5 139t-50 136t-19 127.5zM195 612 q0 -383 436 -397v211q-115 6 -127 113l311 585v-559q0 -133 -133 -139v-211q444 12 444 393v598q0 373 -444 373v-215q133 -10 133 -137l-313 -590v588q0 129 129 139v215q-436 -12 -436 -365v-602z" />
<glyph unicode="&#xd9;" horiz-adv-x="1329" d="M143 1866h475l216 -269h344l174 -366v-983q0 -424 -529 -436h-10q-94 2 -167 20t-126 51q-35 20 -74.5 66.5t-80.5 109t-79 137t-68 148.5t-47 143.5t-17 124.5v985h133zM199 612q0 -381 434 -397v211q-127 10 -127 139v985h-307v-938zM291 1823l303 -201h162l-158 201 h-307zM688 215q442 12 442 393v942h-311v-985q0 -133 -131 -139v-211zM729 481q45 25 45 84v652l-45 20v-756z" />
<glyph unicode="&#xda;" horiz-adv-x="1329" d="M154 612v985h297l208 269h521l170 -363l-99 -63l101 -209v-983q0 -424 -529 -436h-10q-94 2 -167 20t-126 51q-35 20 -74.5 66.5t-80.5 109t-79 137t-68 148.5t-47 143.5t-17 124.5zM199 612q0 -381 434 -397v211q-127 10 -127 139v985h-307v-938zM526 1622h197l305 201 h-346zM688 215q442 12 442 393v942h-311v-985q0 -133 -131 -139v-211zM729 481q45 25 45 84v652h-45v-736z" />
<glyph unicode="&#xdb;" horiz-adv-x="1329" d="M154 612v985h59l334 269h231l332 -269h68l174 -366v-983q0 -424 -529 -436h-10q-94 2 -167 20t-126 51q-35 20 -74.5 66.5t-80.5 109t-79 137t-68 148.5t-47 143.5t-17 124.5zM199 612q0 -381 434 -397v211q-127 10 -127 139v985h-307v-938zM313 1622h250l101 86l98 -86 h248l-246 201h-203zM688 215q442 12 442 393v942h-311v-985q0 -133 -131 -139v-211zM729 481q45 25 45 84v664l-45 -12v-736z" />
<glyph unicode="&#xdc;" horiz-adv-x="1329" d="M154 612v985h184v250h653l121 -250h66l174 -366v-983q0 -424 -529 -436h-10q-94 2 -167 20t-126 51q-35 20 -74.5 66.5t-80.5 109t-79 137t-68 148.5t-47 143.5t-17 124.5zM199 612q0 -381 434 -397v211q-127 10 -127 139v985h-307v-938zM383 1622h221v180h-221v-180z M688 215q442 12 442 393v942h-311v-985q0 -133 -131 -139v-211zM723 1622h223v180h-223v-180zM729 481q45 25 45 84v652h-45v-736z" />
<glyph unicode="&#xdd;" horiz-adv-x="1359" d="M88 1597h297l213 269h516l-6 -4l131 -265h33l-4 -8l178 -358l-387 -811v-580h-389l-178 355v528zM158 1550l352 -755l133 325l-170 430h-315zM463 1622h201l301 201h-347zM532 242h304v553l362 755h-313l-353 -845v-463zM688 1217l4 -13l4 13h-8z" />
<glyph unicode="&#xde;" horiz-adv-x="1099" d="M158 195v1402h362l111 -233q115 -12 189.5 -55t123.5 -152l162 -334q16 -35 22.5 -75.5t8.5 -92.5q0 -150 -1 -232.5t-3 -105.5q-10 -90 -42 -150.5t-86.5 -99t-130 -57t-174.5 -22.5v-148h-358zM203 242h272v1308h-272v-1308zM545 391q104 4 175 25.5t115 71t63.5 129 t19.5 202.5v96q0 27 -2.5 46.5t-2.5 35.5q0 18 2 21q0 303 -370 315v-200q96 -12 96 -103v-328q0 -104 -96 -116v-195z" />
<glyph unicode="&#xdf;" horiz-adv-x="1236" d="M141 190v984q0 412 447 446h35q80 -6 142 -22.5t109.5 -46t84 -72.5t67.5 -105q35 -70 72 -139.5t66.5 -137t49 -134t19.5 -129.5q0 -143 -78 -240q39 -78 61.5 -124t34 -75.5t14.5 -52.5t3 -53q0 -233 -113 -352t-379 -125l-82 165v-145h-370zM188 236h281v966 q0 137 109 154v219q-389 -18 -390 -406v-933zM629 825q143 -2 143 -227q0 -147 -135 -166v-215q410 12 410 404q0 221 -168 303q131 94 131 272q0 367 -375 379v-219q106 -14 106 -148q0 -98 -27.5 -139t-84.5 -41v-203z" />
<glyph unicode="&#xe0;" horiz-adv-x="1220" d="M119 1528h477l254 -354q45 -16 91 -61.5t87 -107t76 -132t60.5 -138t40 -126t14.5 -93.5q0 -18 -1 -45t-1 -61v-136q0 -68 2 -135t9 -127.5t21.5 -105.5t36.5 -66h-368q-8 10 -16.5 22.5t-18.5 31.5q-86 -68 -203 -68q-129 0 -207 40t-119 120l-161 321q-51 100 -52 203 q0 127 101 215l-52 102l-2 47q0 186 148 271l-27 16zM188 502q0 -272 314 -273q98 0 157 41v168q-59 -16 -110 -16q-84 0 -84 110q0 86 194 136v172q-471 -61 -471 -338zM231 872h273q2 92 121 93q94 0 94 -91v-505q0 -76 37 -127h274q-31 55 -37 317q4 0 4 328 q0 272 -362 272q-403 0 -404 -287zM266 1483l303 -199h162l-158 199h-307zM1276 -141l2 -6q-2 2 -2 6z" />
<glyph unicode="&#xe1;" horiz-adv-x="1220" d="M141 510q0 127 101 215l-52 102l-2 47q0 225 209 297l-39 66l228 291h516l172 -367l-246 -162q35 -66 68.5 -130t61.5 -125.5t44.5 -119t16.5 -108.5q0 -18 -1 -46t-1 -62v-136q0 -295 69 -432h-368q-8 10 -16.5 22.5t-16.5 26.5q-88 -63 -205 -63q-129 0 -207 40 t-119 120l-161 321q-51 100 -52 203zM188 502q0 -272 314 -273q98 0 157 41v168q-59 -16 -110 -16q-84 0 -84 110q0 86 194 136v172q-471 -61 -471 -338zM231 872h273q2 92 121 93q94 0 94 -91v-505q0 -76 37 -127h274q-31 51 -37 317q4 0 4 328q0 272 -362 272 q-403 0 -404 -287zM453 1284h194l305 199h-344z" />
<glyph unicode="&#xe2;" horiz-adv-x="1220" d="M141 510q0 127 101 215l-52 102l-2 47q0 6 -1 11.5t-1 11.5q0 53 18.5 97t43.5 79l-90 164l356 291h236l348 -291l180 -363h-191l103 -196q37 -72 37 -229q0 -16 -1 -52.5t-2 -75t-2 -74.5t-1 -54q0 -225 65 -353h-368l-35 45q-90 -59 -203 -59q-129 0 -207 40t-119 120 l-161 321q-51 100 -52 203zM188 502q0 -272 314 -273q98 0 157 41v168q-59 -16 -110 -16q-84 0 -84 110q0 86 194 136v172q-471 -61 -471 -338zM231 872h273q2 92 121 93q94 0 94 -91v-505q0 -37 6 -69t6 -58h299q-31 51 -37 317q4 0 4 328q0 272 -362 272q-403 0 -404 -287 zM285 1284h247l99 86l98 -86h250l-248 199h-199zM1276 -141q0 -4 2 -6z" />
<glyph unicode="&#xe3;" horiz-adv-x="1220" d="M141 510q0 127 101 215l-52 102l-2 47q0 86 28 143.5t81 102.5l-82 109h-4q0 272 274 272q14 0 47 -7t67 -16.5t62.5 -16.5t34.5 -7l19 12l4 37h215l201 -407q0 -113 -70 -168q57 -117 105.5 -217.5t48.5 -194.5q0 -18 -1 -46t-1 -62v-134q0 -297 69 -434h-368l-35 45 q-90 -59 -203 -59q-129 0 -207 40t-119 120l-161 321q-51 100 -52 203zM188 502q0 -272 314 -273q98 0 157 41v168q-59 -16 -110 -16q-84 0 -84 110q0 86 194 136v172q-471 -61 -471 -338zM231 872h273q2 92 121 93q94 0 94 -91v-505q0 -76 37 -127h274q-31 51 -37 317 q4 0 4 328q0 272 -362 272q-403 0 -404 -287zM258 1274h145q0 49 70 49q12 0 41 -7t61.5 -16.5t62.5 -16.5t46 -7q225 0 225 182h-143q0 -49 -70 -49q-16 0 -45.5 7t-61.5 16.5t-60.5 16.5t-43.5 7q-227 0 -227 -182z" />
<glyph unicode="&#xe4;" horiz-adv-x="1220" d="M141 510q0 127 101 215l-52 102l-2 47q0 195 154 273l-47 90v270h651l178 -364v-269h-37q47 -92 89.5 -179t42.5 -179q0 -18 -1 -45t-1 -61v-136q0 -141 13 -242.5t46 -172.5l2 -6l-2 2q4 -8 10 -15h-368l-35 45q-90 -59 -203 -59q-129 0 -207 40t-119 120l-161 321 q-51 100 -52 203zM188 502q0 -272 314 -273q98 0 157 41v168q-59 -16 -110 -16q-84 0 -84 110q0 86 194 136v172q-471 -61 -471 -338zM231 872h273q2 92 121 93q94 0 94 -91v-505q0 -76 37 -127h274q-31 55 -37 317q4 0 4 328q0 272 -362 272q-403 0 -404 -287zM338 1284 h221v180h-221v-180zM678 1284h221v180h-221v-180z" />
<glyph unicode="&#xe5;" horiz-adv-x="1220" d="M141 510q0 127 101 215l-54 102v47q0 256 267 312q-45 76 -45 139q0 41 16 78t44 64.5t66.5 43t81.5 15.5q123 0 195 -140l133 -266q31 -29 78 -114q37 -70 71.5 -137.5t62.5 -131t44.5 -120t16.5 -101.5q0 -18 -1 -46t-1 -62v-134q0 -297 69 -434h-368q-8 10 -16.5 22.5 t-16.5 26.5q-88 -63 -205 -63q-129 0 -207 40t-119 120l-161 321q-51 100 -52 203zM188 502q0 -272 314 -273q98 0 157 41v168q-59 -16 -110 -16q-84 0 -84 110q0 86 194 136v172q-471 -61 -471 -338zM231 872h273q2 92 121 93q94 0 94 -91v-505q0 -76 37 -127h274 q-31 51 -37 317q4 0 4 328q0 272 -362 272q-403 0 -404 -287zM455 1323q0 -70 47 -114t116 -44q66 0 113 45t47 113q0 66 -47 112t-113 46q-70 0 -116.5 -46t-46.5 -112zM549 1321q0 66 69 65q72 0 72 -65q0 -68 -72 -68q-69 0 -69 68z" />
<glyph unicode="&#xe6;" horiz-adv-x="1689" d="M141 510q0 127 101 215l-54 102v47q0 330 447 330q135 0 217 -57q51 25 108.5 38t122.5 19h47q80 -6 140.5 -20.5t106.5 -41t80 -66.5t63 -97q33 -68 68.5 -132.5t64 -127t48 -120.5t19.5 -114v-233h-6l6 -14v-58q0 -90 -23.5 -155.5t-77.5 -109.5t-141 -68.5t-212 -32.5 v4q-188 0 -301 100q-176 -92 -285 -92q-129 0 -207 40t-119 120l-161 321q-51 100 -52 203zM188 502q0 -272 314 -273q98 0 157 41v168q-18 -4 -40.5 -10t-49.5 -6q-53 0 -78.5 22.5t-25.5 87.5q0 86 194 136v172q-471 -61 -471 -338zM231 872h273q2 92 121 93q92 0 92 -189 v-143q0 -117 20.5 -197t63.5 -128t109.5 -68.5t158.5 -20.5h14v197q-86 8 -86 94v147h86v131h-86v91q0 74 86 86v194q-129 -2 -233 -63q-70 63 -215 63q-403 0 -404 -287zM1130 219q365 14 365 340h-270q0 -129 -95 -143v-197zM1130 657h365v189q0 305 -365 313v-196 q94 -12 95 -105v-70h-95v-131z" />
<glyph unicode="&#xe7;" horiz-adv-x="1159" d="M147 549v301q0 326 416 354h37q80 -6 142.5 -20.5t109.5 -41t83 -66.5t64 -97l125 -238q72 -162 72 -256v-305q0 -268 -246 -338q31 -68 31 -96q0 -55 -57 -137h-437l-188 358l61 47q-37 70 -74.5 140.5t-68.5 138t-50.5 132t-19.5 124.5zM193 549q0 -274 270 -320 q78 -72 78 -112q0 -31 -103 -105h281q37 51 37 92q0 49 -80 121q82 12 139 37t93 71t51.5 114.5t15.5 170.5h-279q0 -61 -3 -98t-12 -58.5t-26.5 -30.5t-46.5 -15v-150l-10 6h-45v144q-84 16 -84 116v326q0 92 84 105v196q-360 -10 -360 -309v-301zM608 963 q31 -4 48.5 -11.5t26.5 -28t11 -58.5t2 -103h279v84q0 303 -367 313v-196z" />
<glyph unicode="&#xe8;" horiz-adv-x="1161" d="M61 1528h478l229 -291l31 -70q127 -47 200 -188q35 -68 71 -134.5t63.5 -130t45 -121.5t17.5 -108v-305q0 -328 -416 -362h-39q-80 4 -141 19.5t-110.5 45t-87 75.5t-70.5 112l-127 266q-29 61 -44.5 112.5t-13.5 100.5v301q0 193 148 283l-43 28zM193 549 q0 -317 366 -330v197q-90 10 -90 116v125h90v131h-90v70q0 94 90 107v194q-367 -10 -366 -309v-301zM211 1483l303 -199h162l-160 199h-305zM604 219q371 14 371 340h-279q0 -129 -92 -143v-197zM604 657h371v189q0 305 -371 313v-196q92 -12 92 -105v-70h-92v-131z" />
<glyph unicode="&#xe9;" horiz-adv-x="1161" d="M147 549v301q0 231 203 311l-41 76l226 291h518l172 -367l-238 -155q33 -59 70 -128t67.5 -138.5t51 -136t20.5 -118.5v-305q0 -328 -416 -362h-39q-80 4 -141 19.5t-110.5 45t-87 75.5t-70.5 112l-127 266q-29 61 -44.5 112.5t-13.5 100.5zM193 549q0 -317 366 -330v197 q-90 10 -90 116v125h90v131h-90v70q0 94 90 107v194q-367 -10 -366 -309v-301zM401 1284h197l301 199h-342zM604 219q371 14 371 340h-279q0 -129 -92 -143v-197zM604 657h371v189q0 305 -371 313v-196q92 -12 92 -105v-70h-92v-131z" />
<glyph unicode="&#xea;" horiz-adv-x="1161" d="M106 1237l359 291h231l353 -291l180 -363h-180q27 -51 53 -101t46.5 -99t34 -96.5t13.5 -92.5v-305q0 -328 -416 -362h-39q-82 6 -143 21.5t-109.5 44t-86 73.5t-70.5 111q-31 59 -63.5 123.5t-59.5 127t-44.5 122t-17.5 108.5v301q0 127 58 203zM193 549 q0 -317 366 -330v197q-90 10 -90 116v125h90v131h-90v70q0 94 90 107v194q-367 -10 -366 -309v-301zM236 1284h245l101 86l98 -86h248l-246 199h-203zM604 219q371 14 371 340h-279q0 -129 -92 -143v-197zM604 657h371v189q0 305 -371 313v-196q92 -12 92 -105v-70h-92v-131 z" />
<glyph unicode="&#xeb;" horiz-adv-x="1161" d="M147 549v301q0 209 166 295l-51 92v270h656l178 -364v-269h-47q27 -51 53 -101t46.5 -99t34 -96.5t13.5 -92.5v-305q0 -328 -416 -362v-4h-39v4q-80 4 -141 19.5t-110.5 45t-87 75.5t-70.5 112l-127 266q-29 61 -44.5 112.5t-13.5 100.5zM193 549q0 -317 366 -330v197 q-90 10 -90 116v125h90v131h-90v70q0 94 90 107v194q-367 -10 -366 -309v-301zM309 1284h219v180h-219v-180zM604 219q371 14 371 340h-279q0 -129 -92 -143v-197zM604 657h371v189q0 305 -371 313v-196q92 -12 92 -105v-70h-92v-131zM647 1284h225v180h-225v-180z" />
<glyph unicode="&#xec;" horiz-adv-x="677" d="M-123 1528h473l232 -291l174 -363h-90l30 -59v-975h-354l-184 355v905l-95 61zM25 1483l301 -199h161l-157 199h-305zM203 242h270v893h-270v-893z" />
<glyph unicode="&#xed;" horiz-adv-x="677" d="M96 1237l226 291h518l172 -367l-369 -241l53 -105v-975h-354l-184 355v931zM188 1284h197l305 199h-346zM203 242h270v893h-270v-893z" />
<glyph unicode="&#xee;" horiz-adv-x="677" d="M-141 1237l356 291h234l350 -291l180 -363h-313l30 -59v-975h-354l-184 355v679h-111zM-14 1284h245l101 86l98 -86h248l-246 199h-203zM203 242h270v893h-270v-893z" />
<glyph unicode="&#xef;" horiz-adv-x="677" d="M12 1237v270h656l178 -364v-269h-180l30 -59v-975h-354l-184 355v761zM59 1284h220v180h-220v-180zM203 242h270v893h-270v-893zM397 1284h224v180h-224v-180z" />
<glyph unicode="&#xf0;" horiz-adv-x="1296" d="M152 592v194q0 221 180 291l-158 334q98 213 444 213h48q180 0 290.5 -61.5t169.5 -190.5q35 -68 71 -134.5t64.5 -130t47 -120.5t18.5 -108v-648q0 -393 -475 -419h-37q-92 6 -160.5 21t-123 45t-95.5 75t-78 110q-33 66 -69.5 134.5t-67.5 136t-50 133t-19 125.5z M199 592q0 -365 432 -377v215q-137 2 -137 131v205q0 94 131 94q147 0 182 -80v-221q0 -117 -129 -129v-215q424 6 424 381v643q0 330 -436 340v-219q141 -4 141 -119v-262q-109 86 -272 86q-336 0 -336 -279v-194zM213 1395l240 -144q33 49 74.5 75t90.5 34v219 q-160 0 -259 -43t-146 -141z" />
<glyph unicode="&#xf1;" horiz-adv-x="1179" d="M158 195v987h84l-29 55q0 270 274 270q12 0 41 -7t61 -16t60.5 -16.5t40.5 -7.5l25 10q8 14 8 41h215l197 -409q0 -127 -88 -184l96 -187q31 -59 39 -107.5t20 -86.5v-697h-366l-136 271v-271h-358zM203 242h272v893h-272v-893zM258 1280h145q0 47 70 47q14 0 44 -7 t61.5 -16.5t61.5 -16.5t44 -7q227 0 227 184h-145q0 -47 -70 -47q-14 0 -43.5 7.5t-61.5 16.5t-61.5 16t-44.5 7q-227 0 -227 -184zM522 946q25 25 64 25q111 0 110 -123v-606h283l-2 606q0 309 -262 309q-123 0 -193 -51v-160z" />
<glyph unicode="&#xf2;" horiz-adv-x="1167" d="M76 1528h477l266 -369q113 -49 178 -178q33 -68 68 -134.5t63.5 -130t48 -122.5t19.5 -109v-186q0 -133 -19.5 -220t-66.5 -142.5t-125 -82t-194 -36.5h-52q-80 6 -141 21.5t-109.5 44t-86 73.5t-70.5 111l-127 266q-29 61 -43.5 112.5t-14.5 102.5v301q0 201 154 291 l-35 20zM193 549q0 -324 376 -330v195q-100 6 -100 118v326q0 49 24.5 77t75.5 30v194q-377 -2 -376 -309v-301zM225 1483l301 -199h164l-158 199h-307zM604 219q371 14 371 328v299q0 307 -371 313v-196q92 -12 92 -105v-326q0 -102 -92 -116v-197z" />
<glyph unicode="&#xf3;" horiz-adv-x="1167" d="M147 549v301q0 242 222 319l-39 68l223 291h520l170 -367l-252 -164q35 -72 71 -141.5t65.5 -135t49 -124.5t19.5 -111v-188q0 -133 -20.5 -220t-67.5 -141.5t-125 -81t-192 -36.5h-52q-80 6 -141 21.5t-109.5 44t-86 73.5t-70.5 111l-127 266q-29 61 -43.5 112.5 t-14.5 102.5zM193 549q0 -324 376 -330v195q-100 6 -100 118v326q0 49 24.5 77t75.5 30v194q-377 -2 -376 -309v-301zM420 1284h198l304 199h-347zM604 219q371 14 371 328v299q0 307 -371 313v-196q92 -12 92 -105v-326q0 -102 -92 -116v-197z" />
<glyph unicode="&#xf4;" horiz-adv-x="1167" d="M106 1237l359 291h231l353 -291l180 -363h-180q27 -51 53 -101t46.5 -99t34 -96.5t13.5 -92.5v-329q-10 -86 -38 -146.5t-77 -99.5t-120.5 -60.5t-169.5 -29.5h-50q-156 0 -267.5 50t-183 143t-105 228.5t-33.5 307.5v301q0 123 55 203zM193 549q0 -324 376 -330v195 q-100 6 -100 118v326q0 49 24.5 77t75.5 30v194q-377 -2 -376 -309v-301zM236 1284h245l101 86l98 -86h248l-246 199h-203zM604 219q371 14 371 328v299q0 307 -371 313v-196q92 -12 92 -105v-326q0 -102 -92 -116v-197z" />
<glyph unicode="&#xf5;" horiz-adv-x="1167" d="M147 549v301q0 176 119 270l-55 117h-6q0 270 274 270q12 0 42 -7t62.5 -16t61.5 -16.5t39 -7.5l25 10q6 18 6 41h192l45 -45v-8l178 -356q0 -129 -100 -191l115 -186l51 -215v-309q0 -199 -97.5 -291t-307.5 -92h-52q-78 2 -139 16t-110.5 43t-87 75t-68.5 111 q-31 63 -63.5 127t-60.5 125.5t-45.5 121t-17.5 112.5zM193 549q0 -324 376 -330v195q-100 6 -100 118v326q0 49 24.5 77t75.5 30v194q-377 -2 -376 -309v-301zM252 1280h145q0 47 68 47q14 0 44 -7t61.5 -16.5t61.5 -16.5t46 -7q227 0 227 184h-145q0 -47 -70 -47 q-16 0 -46 7.5t-61.5 16.5t-61 16t-44.5 7q-225 0 -225 -184zM604 219q371 14 371 328v299q0 307 -371 313v-196q92 -12 92 -105v-326q0 -102 -92 -116v-197z" />
<glyph unicode="&#xf6;" horiz-adv-x="1167" d="M147 549v301q0 207 160 293l-49 94v270h651l178 -364v-269h-38q27 -51 53 -101t46.5 -99t34 -96.5t13.5 -92.5v-96q0 -27 2 -45t2 -33q0 -137 -20.5 -228t-68.5 -147.5t-126 -83t-194 -34.5h-52q-80 6 -141 21.5t-109.5 44t-86 73.5t-70.5 111l-127 266 q-29 61 -43.5 112.5t-14.5 102.5zM193 549q0 -324 376 -330v195q-100 6 -100 118v326q0 49 24.5 77t75.5 30v194q-377 -2 -376 -309v-301zM303 1284h219v180h-219v-180zM604 219q371 14 371 328v299q0 307 -371 313v-196q92 -12 92 -105v-326q0 -102 -92 -116v-197z M643 1284h223v180h-223v-180z" />
<glyph unicode="&#xf7;" horiz-adv-x="942" d="M158 784v228h125v315h381l176 -362v-74l123 -244v-221h-127v-328h-375l-185 359v100zM203 827h536v140h-536v-140zM322 504h288v205h-288v-205zM330 1077h288v207h-288v-207z" />
<glyph unicode="&#xf8;" horiz-adv-x="1167" d="M147 549v301q0 326 412 354l57 -2q154 -6 240 -61.5t141 -159.5q33 -63 68 -130t62.5 -131.5t46 -124.5t18.5 -110l6 -188q0 -133 -21.5 -221t-68.5 -142.5t-126 -80t-191 -35.5h-52q-80 6 -141 21.5t-109.5 44t-86 73.5t-70.5 111l-127 266q-29 61 -43.5 112.5 t-14.5 102.5zM193 549q0 -324 376 -330v195q-49 2 -77 39l204 381v-302q0 -102 -92 -116v-197q371 14 371 328v299q0 307 -371 313v-196q72 -12 88 -66l-219 -405q-4 20 -4 22v344q0 49 24.5 77t75.5 30v194q-377 -2 -376 -309v-301z" />
<glyph unicode="&#xf9;" horiz-adv-x="1177" d="M115 1528h473l262 -346h172l174 -367v-975h-356l-13 19q-104 -41 -184 -41q-188 0 -260 139l-168 334q-35 66 -49 123t-12 118v650h141zM199 528q6 -309 264 -309q115 0 192 53v158q-35 -25 -63 -24q-113 0 -113 122v607h-280v-607zM262 1483l301 -199h164l-162 199h-303 zM702 242h273v893h-273v-893z" />
<glyph unicode="&#xfa;" horiz-adv-x="1177" d="M154 561v621h202l-34 55l227 291h520l168 -367l-160 -106l119 -240v-975h-356l-13 19q-104 -41 -184 -41q-188 0 -260 139l-168 334q-61 119 -61 270zM199 528q6 -309 264 -309q115 0 192 53v158q-35 -25 -63 -24q-113 0 -113 122v607h-280v-607zM416 1284h196l303 199 h-344zM702 242h273v893h-273v-893z" />
<glyph unicode="&#xfb;" horiz-adv-x="1177" d="M154 485v770l331 273h232l352 -291l127 -309v-1088h-356l-13 19q-104 -41 -184 -41q-188 0 -260 139l-168 334q-53 102 -61 194zM199 1135l2 -607q0 -309 262 -309q115 0 192 53v158q-35 -25 -63 -24q-113 0 -113 122v607h-280zM254 1284h248l98 86l100 -86h246l-244 199 h-202zM702 242h273v893h-273v-893z" />
<glyph unicode="&#xfc;" horiz-adv-x="1177" d="M154 604v578h141l-33 55v270h656l178 -364v-119l100 -209v-975h-356l-13 19q-104 -41 -184 -41q-188 0 -260 139l-168 334q-33 63 -47 141t-14 172zM199 528q0 -309 264 -309q115 0 192 53v158q-35 -25 -63 -24q-113 0 -113 122v607h-280v-607zM309 1284h219v180h-219 v-180zM647 1284h225v180h-225v-180zM702 242h273v893h-273v-893z" />
<glyph unicode="&#xfd;" horiz-adv-x="1185" d="M119 1182h237l-34 55l227 291h516l172 -367l-102 -65l139 -277l-354 -1069q-92 -207 -336 -207q-39 0 -77 1t-75 3l-182 359v293h117q70 8 73 73zM182 1137l305 -861q-2 -35 -10 -57t-28.5 -37.5t-57.5 -21.5t-96 -6v-203q37 -2 64.5 -2h43.5q238 0 316 231l-279 957 h-258zM414 1284h196l305 199h-346zM645 641l105 -391l284 887h-272z" />
<glyph unicode="&#xfe;" horiz-adv-x="1099" d="M158 195v1402h362l111 -233q61 -10 108 -26.5t83 -42t63.5 -60.5t52.5 -82l164 -330q18 -37 25.5 -79t9.5 -89q-4 -16 -4 -29.5v-27.5v-37v-207q0 -98 -29 -165.5t-83 -110.5t-135 -64.5t-186 -25.5v-148h-358zM203 242h272v1308h-272v-1308zM545 391q104 4 175 25.5 t115 71t63.5 129t19.5 202.5q0 125 -8.5 219.5t-45.5 159t-111.5 98t-207.5 37.5v-200q96 -12 96 -103v-328q0 -100 -96 -116v-195z" />
<glyph unicode="&#xff;" horiz-adv-x="1185" d="M119 1182h170l-31 55v270h653l363 -688l-354 -1069q-92 -207 -336 -207q-39 0 -77 1t-75 3l-182 359v293h117q70 8 73 73zM182 1137l305 -861q-2 -35 -10 -57t-28.5 -37.5t-57.5 -21.5t-96 -6v-203q37 -2 64.5 -2h43.5q238 0 316 231l-279 957h-258zM303 1284h221v180 h-221v-180zM643 1284h223v180h-223v-180zM645 641l105 -391l284 887h-272z" />
<glyph unicode="&#x152;" horiz-adv-x="1726" d="M152 612v602q0 379 485 410h39q14 0 47 -4t68.5 -9t65.5 -9.5t40 -4.5h705v-10l178 -356v-303h-131l108 -213v-305h-108l131 -263v-307h-727q-14 0 -43 -4t-59.5 -10t-58.5 -10t-40 -4h-31q-182 12 -299 77q-35 20 -75.5 66.5t-81.5 108t-79 135t-68 147.5t-48 142.5 t-18 123.5zM195 612q0 -383 436 -397v211q-129 8 -129 139v660q0 129 129 139v215q-436 -12 -436 -365v-602zM682 215q12 0 39 4t55.5 9t54 9.5t37.5 4.5h250q0 25 1 76t3 107t3 107.5t1 75.5v598q0 23 -1 71t-3 101.5t-3 101.5t-1 70h-227q-6 0 -34 4.5t-61.5 10.5 t-65.5 10t-48 4v-215q133 -10 133 -139v-660q0 -129 -133 -139v-211zM727 492q45 20 45 73v375q-45 -27 -45 -78v-370zM1165 242h389v225h-389v-225zM1165 813h371v217h-371v-217zM1165 1333h389v217h-389v-217z" />
<glyph unicode="&#x153;" horiz-adv-x="1660" d="M147 549v301q0 326 412 354v2l57 -2q70 -4 123.5 -17t91.5 -28q25 2 47.5 9.5t47 15.5t51.5 14t59 6l66 -2q80 -2 141.5 -17.5t108.5 -43t80.5 -68.5t62.5 -94q35 -68 71 -134.5t64.5 -129t47 -120.5t18.5 -110v-305q0 -166 -105.5 -256t-310.5 -106h-41q-74 4 -131 15 t-98 32q-43 -20 -98.5 -31.5t-120.5 -15.5h-52q-80 6 -141 21.5t-109.5 44t-86 73.5t-70.5 111l-127 266q-29 61 -43.5 112.5t-14.5 102.5zM193 549q0 -324 376 -330v195q-100 6 -100 118v326q0 49 24.5 77t75.5 30v194q-377 -2 -376 -309v-301zM604 219q131 6 223 53 q43 -25 100.5 -37t127.5 -16v197q-84 10 -84 84v157h84v131h-80v99q0 35 18.5 53t61.5 25v194q-68 -2 -125.5 -13t-98.5 -36q-45 25 -102 36t-125 13v-196q70 -12 88 -66v-408q-16 -66 -88 -73v-197zM1102 219q369 14 368 340h-274q0 -129 -94 -143v-197zM1102 657h368v189 q0 154 -88 231.5t-280 81.5v-196q94 -12 94 -105v-70h-94v-131z" />
<glyph unicode="&#x178;" horiz-adv-x="1359" d="M88 1597h281v250h655v-8l119 -242h129l-4 -8l178 -358l-387 -811v-580h-389l-178 355h-5v528zM158 1550l352 -755l133 325l-170 430h-315zM416 1622h219v180h-219v-180zM532 242h304v553l362 755h-313l-353 -845v-463zM754 1622h223v180h-223v-180z" />
<glyph unicode="&#x2000;" horiz-adv-x="955" />
<glyph unicode="&#x2001;" horiz-adv-x="1911" />
<glyph unicode="&#x2002;" horiz-adv-x="955" />
<glyph unicode="&#x2003;" horiz-adv-x="1911" />
<glyph unicode="&#x2004;" horiz-adv-x="637" />
<glyph unicode="&#x2005;" horiz-adv-x="477" />
<glyph unicode="&#x2006;" horiz-adv-x="318" />
<glyph unicode="&#x2007;" horiz-adv-x="318" />
<glyph unicode="&#x2008;" horiz-adv-x="238" />
<glyph unicode="&#x2009;" horiz-adv-x="382" />
<glyph unicode="&#x200a;" horiz-adv-x="106" />
<glyph unicode="&#x2010;" horiz-adv-x="942" d="M158 522v228h626l179 -365v-221h-621zM203 569h536v136h-536v-136z" />
<glyph unicode="&#x2011;" horiz-adv-x="942" d="M158 522v228h626l179 -365v-221h-621zM203 569h536v136h-536v-136z" />
<glyph unicode="&#x2012;" horiz-adv-x="942" d="M158 522v228h626l179 -365v-221h-621zM203 569h536v136h-536v-136z" />
<glyph unicode="&#x2013;" horiz-adv-x="1349" d="M158 526v224h1026v-9l176 -356v-219h-1018zM203 571h934v134h-934v-134z" />
<glyph unicode="&#x2014;" horiz-adv-x="2187" d="M158 520v230h1863v-9l183 -356v-225h-1862zM203 565h1775v140h-1775v-140z" />
<glyph unicode="&#x2018;" horiz-adv-x="649" d="M141 1161v279l168 231h236l-6 -4l180 -358l-70 -135l33 -62v-309h-358l-179 358h-4zM188 1208h273v224h-92l100 194h-137l-144 -203v-215z" />
<glyph unicode="&#x2019;" horiz-adv-x="667" d="M100 1102l74 153l-35 62v313h377l180 -364v-275l-182 -250h-227zM174 1147h135l164 223v215h-291v-223h90z" />
<glyph unicode="&#x201a;" horiz-adv-x="649" d="M119 0l69 141l-30 54v317h362l176 -367v-272l-161 -231h-232zM193 47h139l143 203v215h-272v-223h88z" />
<glyph unicode="&#x201c;" horiz-adv-x="964" d="M141 1161v279l168 231h236l-6 -4l36 -76l58 80h237l-4 -4l181 -358l-70 -135l33 -62v-309h-686l-179 358h-4zM188 1208h273v224h-92l100 194h-137l-144 -203v-215zM514 1208h270v224h-90l103 194h-140l-143 -203v-215z" />
<glyph unicode="&#x201d;" horiz-adv-x="958" d="M111 1122l69 140l-28 53v315h675v-8l179 -356v-273l-166 -231h-230l-35 69l-49 -69h-229l-180 360h-6zM186 1167h138l143 203v215h-272v-223h90zM500 1167h137l143 203v215h-268v-223h88z" />
<glyph unicode="&#x201e;" horiz-adv-x="964" d="M119 0l69 141l-30 54v317h680l178 -367v-272l-166 -231h-229l-35 73l-51 -73h-232zM193 47h139l143 203v215h-272v-223h88zM510 47h137l144 203v215h-271v-223h90z" />
<glyph unicode="&#x2022;" horiz-adv-x="1169" d="M217 1012q0 74 29.5 140.5t81 115.5t118 78.5t140.5 29.5q223 1 344 -239q37 -68 72.5 -135.5t64.5 -131t46 -121t17 -102.5q0 -74 -28.5 -139.5t-77.5 -115.5t-115.5 -78.5t-142.5 -28.5q-78 0 -130 21.5t-104 64.5q-35 29 -88 107.5t-104 175t-87 193.5t-36 165z M262 1012q0 -68 25.5 -126.5t69.5 -102.5t103.5 -68.5t125.5 -24.5t124 25.5t102 69.5t69.5 102.5t25.5 124.5q0 63 -25.5 121.5t-69.5 103.5t-102.5 70.5t-123.5 25.5q-66 0 -124.5 -25.5t-102.5 -69.5t-70.5 -102t-26.5 -124z" />
<glyph unicode="&#x2026;" horiz-adv-x="1718" d="M158 195v297h381l127 -263v263h381l90 -195v195h381l180 -365v-287h-375l-98 195v-195h-377l-131 260v-260h-375zM203 242h289v207h-289v-207zM709 242h290v207h-290v-207zM1184 242h289v207h-289v-207z" />
<glyph unicode="&#x202f;" horiz-adv-x="382" />
<glyph unicode="&#x205f;" horiz-adv-x="477" />
<glyph unicode="&#x20ac;" horiz-adv-x="1349" d="M59 682v453h127v90q0 184 129 296.5t387 112.5q170 0 269.5 -46t162 -126t107.5 -187.5t107 -227.5q37 -104 36 -357h-139l139 -276v-183q0 -195 -127 -307t-391 -112q-96 0 -167.5 14t-128 46t-100.5 83t-85 127zM92 717h137v-119q0 -365 426 -383v213q-119 8 -118 125 v164h133v127h-133v131h133v127h-133v131q0 113 118 131v215q-426 -20 -426 -358v-119h-137v-127h137v-131h-137v-127zM717 215q444 12 444 379v137h-311q0 -10 1 -27.5t2 -37t2 -38t1 -28.5q0 -168 -139 -174v-211zM717 1364q135 -6 135 -168v-22.5t-1 -30t-1 -28.5v-21h311 v123q0 362 -444 362v-215z" />
<glyph unicode="&#x2122;" horiz-adv-x="1538" d="M98 1395v202h836q0 -10 100 -208l51 208h285l178 -366v-739h-227l-41 77l-25 -77h-133l-59 120v-120h-227l-160 323v-323h-238l-184 358v244zM143 1442h465v108h-465v-108zM299 895h154v520h-154v-520zM696 897h142v653h-142v-653zM856 1262l119 -365h67l123 358v295h-43 l-110 -450l-115 450h-41v-288zM1182 897h143v653h-143v-653z" />
<glyph unicode="&#x25fc;" horiz-adv-x="1177" d="M0 0v1178h1178v-1178h-1178z" />
</font>
</defs>
</svg>
