<?xml version="1.0" encoding="utf-8"?>
<!-- Generator: Adobe Illustrator 18.0.0, SVG Export Plug-In . SVG Version: 6.00 Build 0)  -->
<!DOCTYPE svg PUBLIC "-//W3C//DTD SVG 1.1//EN" "http://www.w3.org/Graphics/SVG/1.1/DTD/svg11.dtd">
<svg version="1.1" id="Layer_1" xmlns="http://www.w3.org/2000/svg" xmlns:xlink="http://www.w3.org/1999/xlink" x="0px" y="0px"
	 viewBox="0 0 100 100" enable-background="new 0 0 100 100" xml:space="preserve">
<path fill="#FFFFFF" d="M76.8,32.6L59.4,50l17.4,17.4c2.6,2.6,2.6,6.8,0,9.4c-1.3,1.3-3,1.9-4.7,1.9c-1.7,0-3.4-0.6-4.7-1.9L50,59.4
	L32.6,76.8c-1.3,1.3-3,1.9-4.7,1.9c-1.7,0-3.4-0.6-4.7-1.9c-2.6-2.6-2.6-6.8,0-9.4L40.6,50L23.2,32.6c-2.6-2.6-2.6-6.8,0-9.4
	c2.6-2.6,6.8-2.6,9.4,0L50,40.6l17.4-17.4c2.6-2.6,6.8-2.6,9.4,0C79.4,25.8,79.4,30,76.8,32.6z"/>
</svg>
