<?xml version="1.0" encoding="utf-8"?>
<!-- Generator: Adobe Illustrator 18.0.0, SVG Export Plug-In . SVG Version: 6.00 Build 0)  -->
<!DOCTYPE svg PUBLIC "-//W3C//DTD SVG 1.1//EN" "http://www.w3.org/Graphics/SVG/1.1/DTD/svg11.dtd">
<svg version="1.1" id="Layer_1" xmlns="http://www.w3.org/2000/svg" xmlns:xlink="http://www.w3.org/1999/xlink" x="0px" y="0px"
	 viewBox="60.5 321.7 609.8 256.3" enable-background="new 60.5 321.7 609.8 256.3" xml:space="preserve">
<rect x="60.5" y="321.6" fill="#FFFFFF" stroke="#000000" stroke-miterlimit="10" width="609.8" height="257.3"/>
<rect x="65" y="326.5" fill="none" stroke="#231F20" stroke-width="9" stroke-miterlimit="10" width="600.7" height="247"/>
<rect x="153.4" y="360" fill="none" stroke="#231F20" stroke-width="9" stroke-miterlimit="10" width="426.8" height="178.3"/>
<path fill="none" stroke="#231F20" stroke-width="9" stroke-miterlimit="10" d="M432.4,413.9c0-11.1-7.4-20.1-16.7-20.1H315.4
	c-9.3,0-16.7,9-16.7,20.1"/>
<path fill="none" stroke="#231F20" stroke-width="9" stroke-miterlimit="10" d="M432.4,484.7c0,11.1-7.4,20.1-16.7,20.1H315.4
	c-9.3,0-16.7-9-16.7-20.1"/>
<g>
	<g>
		<rect x="87.2" y="423.1" fill="#FFFFFF" width="560.4" height="56.6"/>
	</g>
</g>
<line fill="none" x1="107.2" y1="427.6" x2="90.8" y2="427.6"/>
<line fill="none" x1="90.8" y1="427.6" x2="90.8" y2="436.3"/>
<line fill="none" x1="90.8" y1="436.3" x2="114.4" y2="436.3"/>
<line fill="none" x1="90.8" y1="436.3" x2="94.2" y2="427.2"/>
<line fill="none" x1="94.2" y1="427.2" x2="108.8" y2="427.2"/>
<line fill="none" x1="108.8" y1="427.2" x2="111.8" y2="436.3"/>
<g>
	<g>
		<path fill="#010101" d="M90.4,474l16.8-46.3h46.3L136.7,474h-9.3l13.5-37h-9.3l-13.5,37h-9.3l13.5-37H113l-13.5,37H90.4z"/>
	</g>
	<g>
		<path fill="#010101" d="M165.4,427.7h46.3l-3.3,9.3h-37l-3.5,9.3H205l-3.3,9.3h-37l-3.3,9.3h37l-3.3,9.3h-46.3L165.4,427.7z"/>
	</g>
	<g>
		<path fill="#010101" d="M223.1,427.7h46.3L266,437h-37l-10.2,27.9h37l-3.3,9.3h-46.3L223.1,427.7z"/>
	</g>
	<g>
		<path fill="#010101" d="M264.3,474l16.8-46.3h9.3l-6.8,18.6l30.5-18.6h13.5l-36.5,23.8l19.7,22.5h-13.6l-16.8-18.6l-6.7,18.6
			H264.3L264.3,474z"/>
	</g>
	<g>
		<path fill="#010101" d="M337.7,474l6.7-18.6l-8.4-27.9h11.6l5,17.6l18.4-17.6h11.4l-28.7,27.9L347,474H337.7z"/>
	</g>
	<g>
		<path fill="#010101" d="M390,427.7h9.3l0.2,37l27.5-37h9.3L401,474h-9.3L390,427.7z"/>
	</g>
	<g>
		<path fill="#010101" d="M453.6,427.7L436.7,474h-9.3l16.8-46.3L453.6,427.7L453.6,427.7z"/>
	</g>
	<g>
		<path fill="#010101" d="M579.4,474l16.8-46.3h9.3l15.8,32.9l12-32.9h9.3L625.8,474h-9.3l-16.2-31.8L588.6,474H579.4z"/>
	</g>
	<g>
		<path fill="#010101" d="M529.7,427.7L512.9,474h-9.3l16.8-46.3L529.7,427.7L529.7,427.7z"/>
	</g>
	<g>
		<path fill="#010101" d="M522.7,474l16.8-46.3h46.3L569,474H522.7z M563.1,464.7l10.2-27.9h-27.9l-10.2,27.9H563.1z"/>
	</g>
	<g>
		<path fill="#010101" d="M507.4,437h-37l-3.5,9.3h37l-10,27.9h-46.3l3.3-9.3h37l3.3-9.3h-37l10.2-27.9h46.3L507.4,437z"/>
	</g>
</g>
<polygon fill="#231F20" points="89.9,437.1 94.2,427.7 114.9,427.7 104.9,437.1 "/>
</svg>
