<?xml version="1.0" encoding="utf-8"?>
<!-- Generator: Adobe Illustrator 18.0.0, SVG Export Plug-In . SVG Version: 6.00 Build 0)  -->
<!DOCTYPE svg PUBLIC "-//W3C//DTD SVG 1.1//EN" "http://www.w3.org/Graphics/SVG/1.1/DTD/svg11.dtd">
<svg version="1.1" id="Capa_1" xmlns="http://www.w3.org/2000/svg" xmlns:xlink="http://www.w3.org/1999/xlink" x="0px" y="0px"
	 viewBox="0 0 40 40" enable-background="new 0 0 40 40" xml:space="preserve">
<g id="_x33_56._Play">
	<g>
		<path fill="#F2552C" d="M37.3,10C31.8,0.4,19.6-2.8,10,2.7C0.4,8.2-2.8,20.4,2.7,30c5.5,9.6,17.8,12.8,27.3,7.3
			C39.6,31.8,42.8,19.6,37.3,10z M28,33.9c-7.7,4.4-17.4,1.8-21.9-5.9C1.7,20.4,4.4,10.6,12,6.1c7.7-4.4,17.4-1.8,21.9,5.9
			C38.3,19.7,35.7,29.4,28,33.9z M27.2,19.2l-10.5-6.1c-1-0.6-1.7-0.1-1.7,1l0.1,12.1c0,1.1,0.8,1.6,1.7,1l10.4-6
			C28.2,20.6,28.2,19.7,27.2,19.2z"/>
	</g>
</g>
</svg>
